<?xml version="1.0" encoding="UTF-8" standalone="no"?>
<!-- Created with Inkscape (http://www.inkscape.org/) -->

<svg
   xmlns:dc="http://purl.org/dc/elements/1.1/"
   xmlns:cc="http://creativecommons.org/ns#"
   xmlns:rdf="http://www.w3.org/1999/02/22-rdf-syntax-ns#"
   xmlns:svg="http://www.w3.org/2000/svg"
   xmlns="http://www.w3.org/2000/svg"
   xmlns:sodipodi="http://sodipodi.sourceforge.net/DTD/sodipodi-0.dtd"
   xmlns:inkscape="http://www.inkscape.org/namespaces/inkscape"
   width="52.916668mm"
   height="16.134039mm"
   viewBox="0 0 52.916668 16.13404"
   version="1.1"
   id="svg6642"
   inkscape:version="0.92.4 (5da689c313, 2019-01-14)"
   sodipodi:docname="logo-header.svg">
  <defs
     id="defs6636" />
  <sodipodi:namedview
     id="base"
     pagecolor="#ffffff"
     bordercolor="#666666"
     borderopacity="1.0"
     inkscape:pageopacity="0.0"
     inkscape:pageshadow="2"
     inkscape:zoom="1.979899"
     inkscape:cx="-20.473061"
     inkscape:cy="19.683627"
     inkscape:document-units="mm"
     inkscape:current-layer="layer1"
     showgrid="false"
     inkscape:window-width="1366"
     inkscape:window-height="705"
     inkscape:window-x="-8"
     inkscape:window-y="-8"
     inkscape:window-maximized="1"
     fit-margin-top="0"
     fit-margin-left="0"
     fit-margin-right="0"
     fit-margin-bottom="0"
     showguides="false" />
  <metadata
     id="metadata6639">
    <rdf:RDF>
      <cc:Work
         rdf:about="">
        <dc:format>image/svg+xml</dc:format>
        <dc:type
           rdf:resource="http://purl.org/dc/dcmitype/StillImage" />
        <dc:title />
      </cc:Work>
    </rdf:RDF>
  </metadata>
  <g
     inkscape:label="Layer 1"
     inkscape:groupmode="layer"
     id="layer1"
     transform="translate(-86.182098,-217.70639)">
    <rect
       style="fill:none;fill-rule:evenodd;stroke-width:0.67336917"
       id="rect38373"
       width="52.916664"
       height="16.134039"
       x="86.182098"
       y="217.70639" />
    <g
       id="g3695"
       transform="matrix(0.32071048,0,0,0.32071048,-506.81038,368.4367)"
       inkscape:export-filename="C:\Users\Thiago Campos\Dropbox\Projetos\DropHank\UpDrop\logo-horizontal.png"
       inkscape:export-xdpi="92"
       inkscape:export-ydpi="92">
      <g
         id="g3693"
         transform="matrix(1.1983897,0,0,1.1983897,-364.18096,47.885998)">
        <g
           transform="matrix(0.50156787,0,0,0.50156787,905.3602,-176.52053)"
           id="g3687">
          <g
             transform="matrix(1.5529019,0,0,1.5529019,-242.2711,-825.53525)"
             style="fill:#24b5f5;fill-opacity:1"
             id="g3633" />
          <path
             id="path3635"
             d="m 1952.7384,-508.40949 c -0.38,0.009 -0.7601,0.0547 -1.137,0.14442 -14.2114,2.8287 -28.3919,5.80679 -42.6168,8.54405 -0.9315,0.22697 -1.9653,0.50801 -2.531,1.34817 -0.8063,1.33813 -0.3926,3.44551 1.203,3.98754 1.5517,0.3557 3.1505,-0.0109 4.6817,-0.30173 -0.2269,1.51768 -0.5146,3.05226 -1.1686,4.45138 -0.3387,0.84353 -1.3657,0.87725 -2.1144,1.10422 -8.327,1.72432 -16.6535,3.43492 -24.9839,5.14231 -0.9384,0.22359 -2.0018,0.45436 -2.5846,1.30805 -0.9709,1.47476 -0.61,4.26972 1.775,4.587 11.5953,-1.96882 16.4427,-3.03777 24.7062,-4.51558 -0.5965,2.7508 -1.7172,5.34226 -2.5303,8.03208 -1.0333,3.41478 -2.3514,6.73753 -3.4355,10.13537 -0.5996,1.71078 0.054,3.56763 1.223,4.87189 3.5638,4.16008 7.2263,8.22893 10.8817,12.30769 -6.5043,1.25683 -12.9717,2.71334 -19.4795,3.94982 -4.4389,1.03583 -3.5137,6.54986 0.7897,5.8437 5.244,-0.78933 10.3968,-2.07647 15.6001,-3.09278 1.3351,-0.23036 2.8457,-0.90779 4.0992,-0.0474 1.4567,0.78594 2.0528,2.81143 1.1788,4.22749 -0.5588,0.93839 -1.6162,1.38575 -2.6393,1.60257 -3.2861,0.70801 -6.5924,1.33438 -9.8819,2.02546 -1.0974,0.23036 -2.3779,0.61357 -2.8014,1.78232 -0.9316,1.71417 0.7553,3.93295 2.6185,3.7805 1.7108,-0.014 3.3537,-0.55903 5.0204,-0.87069 6.1588,-1.22973 12.2707,-2.6829 18.4363,-3.87199 0.9045,-0.15584 1.8124,0.014 2.7068,0.16611 2.0257,0.39636 4.0004,-0.42688 5.9889,-0.68772 9.106,-1.82258 18.2124,-3.63834 27.3118,-5.4914 1.4805,-0.29134 3.0149,-0.45441 4.3904,-1.10823 1.3109,-0.63012 2.2361,-1.85264 2.7036,-3.20432 3.6856,-10.8067 7.307,-21.63767 10.9386,-32.4613 0.6063,-1.87 0.5016,-4.06787 -0.8466,-5.59571 -3.1133,-3.76032 -6.5452,-7.25665 -9.5841,-11.08472 -2.0765,-2.44252 -4.2038,-4.84127 -6.338,-7.22959 -2.7814,-3.00148 -5.2754,-6.27752 -8.2327,-9.11301 -1.0673,-0.3989 -2.2081,-0.69448 -3.3481,-0.66606 z m -51.5363,10.32798 v 8.2e-4 c -1.5058,0.0533 -2.9576,0.56195 -4.4313,0.8458 -1.6902,0.34692 -3.379,0.69677 -5.0693,1.04324 -0.7721,0.18399 -1.6478,0.37368 -2.1274,1.07613 -0.9221,1.56415 -0.2097,3.68737 1.4613,3.77408 1.7408,0.10358 3.3954,-0.51416 5.0797,-0.8386 1.6904,-0.34693 3.3798,-0.69668 5.0702,-1.04322 0.772,-0.184 1.6472,-0.37372 2.1266,-1.07613 0.9221,-1.56418 0.2104,-3.6873 -1.4605,-3.77408 -0.2258,-0.014 -0.4558,-0.009 -0.6493,-0.008 z"
             style="opacity:1;fill:#212280;fill-opacity:1;stroke-width:0.33876789"
             inkscape:connector-curvature="0" />
          <g
             id="g3641"
             transform="matrix(0.33876789,0,0,0.33876789,1721.9126,-892.81831)">
            <g
               id="g3639">
              <path
                 id="path3637"
                 d="m 685.72239,1171.9331 c 0.64001,-1.92 1.45001,-3.81 2.67,-5.44 2.34,-0.43 5.35001,-0.99 7.04,1.19 4.67001,4.69 8.62001,10.04 13.33001,14.7 2.17999,2.49 5.55,5.26 4,8.98 -4.11,12.85 -9.03,25.46 -12.74001,38.42 -1.95999,6.5 5.91,12.98 11.82,9.61 3.33,-1.28 4.89,-4.7 5.77001,-7.91 1.90999,-6.94 4.81999,-13.55 6.51999,-20.55 0.12,0.54 0.25,1.08 0.38001,1.63 0.40999,-2.64 1.03999,-5.23 1.60999,-7.83 4.19,0.58 6.14,4.73 8.80001,7.5 3.42999,4.15 7.66999,7.74 10.28,12.51 2.07,4.42 2.17,9.75 0.04,14.17 -6.09,18.54 -12.45,36.99 -18.52,55.54 -0.82,2.59 -2.5,5.36 -5.44,5.76 -2.88,-0.29 -4.68,-2.92 -6.57,-4.81 -11.91999,-13.41 -23.81,-26.85 -35.65,-40.33 -4.12,-5.22 -9.87,-9.38 -12.21,-15.81 -1.43,-3.46 -1.27,-7.41 -0.07,-10.92 6.27,-18.82 12.85,-37.53 18.94,-56.41 z"
                 style="opacity:1;fill:#24b5f5;fill-opacity:1;stroke-width:1"
                 inkscape:connector-curvature="0" />
            </g>
          </g>
          <g
             style="fill:#ffffff;fill-opacity:1"
             id="g3681"
             transform="matrix(1.5529019,0,0,1.5529019,-244.73633,-828.00048)">
            <g
               style="fill:#ffffff;fill-opacity:1"
               transform="matrix(0.00553423,0.01320597,-0.01320597,0.00553423,1408.6098,231.81958)"
               id="g3677">
              <g
                 style="fill:#ffffff;fill-opacity:1"
                 id="g3645">
                <path
                   inkscape:connector-curvature="0"
                   id="path3643"
                   d="m 120.027,541.902 c 26.6,0 53.5,-8.8 75.7,-27 l 288.1,-234.7 290.899,237 c 22.301,18.101 49.101,27 75.7,27 34.8,0 69.4,-15.1 93.101,-44.2 41.899,-51.399 34.1,-127 -17.2,-168.8 l -366.7,-298.8 c -44.1,-36 -107.5,-36 -151.6,0 l -363.8,296.4 c -51.4,41.9 -59.1,117.5 -17.3,168.9 23.8,29.1 58.3,44.2 93.1,44.2 z"
                   style="fill:#ffffff;fill-opacity:1" />
              </g>
              <g
                 style="fill:#ffffff;fill-opacity:1"
                 id="g3647" />
              <g
                 style="fill:#ffffff;fill-opacity:1"
                 id="g3649" />
              <g
                 style="fill:#ffffff;fill-opacity:1"
                 id="g3651" />
              <g
                 style="fill:#ffffff;fill-opacity:1"
                 id="g3653" />
              <g
                 style="fill:#ffffff;fill-opacity:1"
                 id="g3655" />
              <g
                 style="fill:#ffffff;fill-opacity:1"
                 id="g3657" />
              <g
                 style="fill:#ffffff;fill-opacity:1"
                 id="g3659" />
              <g
                 style="fill:#ffffff;fill-opacity:1"
                 id="g3661" />
              <g
                 style="fill:#ffffff;fill-opacity:1"
                 id="g3663" />
              <g
                 style="fill:#ffffff;fill-opacity:1"
                 id="g3665" />
              <g
                 style="fill:#ffffff;fill-opacity:1"
                 id="g3667" />
              <g
                 style="fill:#ffffff;fill-opacity:1"
                 id="g3669" />
              <g
                 style="fill:#ffffff;fill-opacity:1"
                 id="g3671" />
              <g
                 style="fill:#ffffff;fill-opacity:1"
                 id="g3673" />
              <g
                 style="fill:#ffffff;fill-opacity:1"
                 id="g3675" />
            </g>
            <path
               id="path3679"
               d="m 1395.0501,238.93301 c 0.1472,0.35128 0.4123,0.65781 0.7755,0.85027 l 4.6939,2.50576 -1.5199,5.15321 c -0.1156,0.39468 -0.085,0.79785 0.062,1.14912 0.1926,0.45956 0.5835,0.83292 1.099,0.98487 0.9107,0.26886 1.8659,-0.25252 2.134,-1.16132 l 1.9165,-6.49625 c 0.2314,-0.78162 -0.1195,-1.61888 -0.839,-2.00203 l -5.9289,-3.16343 c -0.8365,-0.44746 -1.8774,-0.13076 -2.3249,0.70571 -0.2526,0.47535 -0.2611,1.01452 -0.068,1.47409 z"
               style="fill:#ffffff;fill-opacity:1;stroke-width:0.0143187"
               inkscape:connector-curvature="0" />
          </g>
          <rect
             transform="matrix(0.98500587,-0.17252083,-0.31408038,0.9493964,0,0)"
             ry="3.2217145"
             y="-180.50063"
             x="1890.8826"
             height="30.925585"
             width="31.002005"
             id="rect3683"
             style="opacity:1;fill:#24b5f5;fill-opacity:1;fill-rule:evenodd;stroke-width:0.50045019" />
          <path
             inkscape:connector-curvature="0"
             id="path3685"
             d="m 1894.3943,-474.97629 v 7.8e-4 c -1.5058,0.0533 -2.9576,0.56195 -4.4313,0.84582 -1.6902,0.3469 -8.7593,1.89239 -10.4496,2.23886 -0.7721,0.18397 -1.648,0.37367 -2.1275,1.07613 -0.9221,1.56414 -0.2097,3.68737 1.4614,3.77408 1.7408,0.10358 8.7756,-1.70979 10.46,-2.03422 1.6902,-0.34693 3.3796,-0.69669 5.0701,-1.04322 0.7719,-0.18401 1.6472,-0.37374 2.1265,-1.07615 0.9221,-1.56416 0.2105,-3.6873 -1.4605,-3.77408 -0.2258,-0.014 -0.4556,-0.009 -0.6491,-0.008 z"
             style="opacity:1;fill:#212280;fill-opacity:1;stroke-width:0.33876789"
             sodipodi:nodetypes="ccccccccccc" />
        </g>
        <g
           aria-label="updrop"
           style="font-style:normal;font-variant:normal;font-weight:normal;font-stretch:normal;font-size:25.80286407px;line-height:1.25;font-family:TypoGraphica;-inkscape-font-specification:TypoGraphica;text-align:end;letter-spacing:-0.32253581px;word-spacing:0px;text-anchor:end;fill:#212280;fill-opacity:1;stroke:none;stroke-width:0.64507163"
           id="text3691">
          <path
             id="path15788"
             style="font-style:normal;font-variant:normal;font-weight:normal;font-stretch:normal;font-family:TypoGraphica;-inkscape-font-specification:TypoGraphica;text-align:start;letter-spacing:0px;text-anchor:start;fill:#212280;fill-opacity:1;stroke-width:0.64507163"
             d="m 1973.7163,-410.52187 q 0,-1.3481 1.0079,-2.31822 0.9954,-0.97013 2.3561,-0.97013 1.3732,0 2.3686,0.97013 1.0079,0.98272 1.0079,2.31822 0,0.88193 -0.4662,1.61268 -0.4661,0.74334 -1.2473,1.18431 -0.7811,0.44097 -1.663,0.44097 -0.882,0 -1.6505,-0.44097 -0.7812,-0.44097 -1.2473,-1.18431 -0.4662,-0.71815 -0.4662,-1.61268 z m -4.0191,11.43994 4.0191,0.0126 v -5.3168 l 0.2898,0.12599 0.2898,0.12599 q 1.3607,0.49136 2.7844,0.49136 1.4488,0 2.7969,-0.49136 1.3355,-0.49136 2.3813,-1.44889 1.0457,-0.94493 1.6252,-2.20483 0.5922,-1.27251 0.5922,-2.734 0,-1.49929 -0.5796,-2.74659 -0.5795,-1.24731 -1.6378,-2.21744 -1.071,-0.97012 -2.3813,-1.44889 -1.3229,-0.51656 -2.7969,-0.51656 -1.9277,0 -3.6412,0.90713 -1.7134,0.89454 -2.7214,2.46942 -1.0079,1.53708 -1.0205,3.46474 z m -8.0382,-4.53566 q -1.9277,0 -3.6411,-0.90713 -1.7135,-0.90713 -2.7214,-2.48201 -1.0205,-1.58748 -1.0205,-3.55294 0,-1.47409 0.5921,-2.74659 0.5922,-1.2725 1.6253,-2.20483 1.0457,-0.94493 2.3812,-1.4489 1.3607,-0.50396 2.7844,-0.50396 1.4363,0 2.797,0.50396 1.3229,0.47877 2.3812,1.4363 1.0457,0.95752 1.6253,2.21743 0.5922,1.2725 0.5922,2.74659 0,1.49929 -0.5796,2.7466 -0.5796,1.2599 -1.6379,2.23003 -1.0709,0.95753 -2.3812,1.44889 -1.3229,0.51656 -2.797,0.51656 z m -3.3639,-6.94208 q 0,1.3481 1.0079,2.31823 0.9953,0.97013 2.356,0.97013 1.3733,0 2.3686,-0.97013 1.008,-0.97013 1.008,-2.31823 0,-0.88193 -0.4662,-1.62527 -0.4662,-0.74335 -1.2473,-1.18432 -0.7686,-0.44096 -1.6631,-0.44096 -0.8693,0 -1.6505,0.44096 -0.7811,0.44097 -1.2473,1.18432 -0.4661,0.74334 -0.4661,1.62527 z m -4.6617,-6.81608 q -0.4032,-0.063 -0.8189,-0.0756 h -0.2268 q -5.5688,0.27718 -5.5688,5.78297 v 7.63502 h 4.0317 v -7.63502 q 0,-2.07885 1.5371,-2.14184 h 0.2268 q 0.5039,0.0252 0.8189,0.23938 z m -12.2841,6.82868 q 0,-0.88193 -0.4661,-1.61268 -0.4662,-0.74334 -1.2473,-1.18431 -0.7686,-0.44096 -1.6505,-0.44096 -0.882,0 -1.6631,0.44096 -0.7811,0.44097 -1.2473,1.18431 -0.4662,0.73075 -0.4662,1.61268 0,1.3481 1.008,2.31823 0.9953,0.97013 2.3686,0.97013 1.3607,0 2.356,-0.97013 1.0079,-0.97013 1.0079,-2.31823 z m 4.0191,0.0882 q -0.013,1.91505 -1.0205,3.46474 -1.0079,1.57488 -2.7214,2.46941 -1.7135,0.90713 -3.6411,0.90713 -1.4741,0 -2.797,-0.51656 -1.3103,-0.47876 -2.3812,-1.44889 -1.0584,-0.97013 -1.6379,-2.21743 -0.5796,-1.24731 -0.5796,-2.7466 0,-1.46149 0.5922,-2.73399 0.5795,-1.25991 1.6253,-2.20484 1.0583,-0.95752 2.3812,-1.44889 1.3607,-0.49136 2.797,-0.49136 1.4237,0 2.7844,0.49136 l 0.2898,0.12599 0.2897,0.12599 v -5.3168 l 4.0191,0.0126 z m -26.1808,-0.063 q 0,-1.3481 1.0079,-2.31822 0.9953,-0.97013 2.356,-0.97013 1.3733,0 2.3687,0.97013 1.0079,0.98272 1.0079,2.31822 0,0.88193 -0.4662,1.61268 -0.4661,0.74334 -1.2473,1.18431 -0.7811,0.44097 -1.6631,0.44097 -0.8819,0 -1.6504,-0.44097 -0.7812,-0.44097 -1.2473,-1.18431 -0.4662,-0.71815 -0.4662,-1.61268 z m -4.0191,11.43994 4.0191,0.0126 v -5.3168 l 0.2898,0.12599 0.2897,0.12599 q 1.3607,0.49136 2.7844,0.49136 1.4489,0 2.797,-0.49136 1.3355,-0.49136 2.3813,-1.44889 1.0457,-0.94493 1.6252,-2.20483 0.5922,-1.27251 0.5922,-2.734 0,-1.49929 -0.5796,-2.74659 -0.5795,-1.24731 -1.6378,-2.21744 -1.071,-0.97012 -2.3813,-1.44889 -1.3229,-0.51656 -2.797,-0.51656 -1.9276,0 -3.6411,0.90713 -1.7135,0.89454 -2.7214,2.46942 -1.0079,1.53708 -1.0205,3.46474 z m -6.4255,-8.21458 q -1.5371,-0.0504 -1.5371,-2.12924 v -7.50904 h -4.0317 v 7.50904 q 0,5.48059 5.5688,5.78296 h 0.2268 q 5.5687,-0.30237 5.5687,-5.78296 v -7.50904 h -4.0317 v 7.50904 q 0,2.07884 -1.537,2.12924 z" />
        </g>
      </g>
    </g>
  </g>
</svg>
