<?xml version="1.0" encoding="UTF-8" standalone="no"?>
<!-- Created with Inkscape (http://www.inkscape.org/) -->

<svg
   xmlns:dc="http://purl.org/dc/elements/1.1/"
   xmlns:cc="http://creativecommons.org/ns#"
   xmlns:rdf="http://www.w3.org/1999/02/22-rdf-syntax-ns#"
   xmlns:svg="http://www.w3.org/2000/svg"
   xmlns="http://www.w3.org/2000/svg"
   xmlns:sodipodi="http://sodipodi.sourceforge.net/DTD/sodipodi-0.dtd"
   xmlns:inkscape="http://www.inkscape.org/namespaces/inkscape"
   width="15.31194mm"
   height="11.90625mm"
   viewBox="0 0 15.31194 11.90625"
   version="1.1"
   id="svg10518"
   inkscape:version="0.92.4 (5da689c313, 2019-01-14)"
   sodipodi:docname="logo.svg">
  <defs
     id="defs10512" />
  <sodipodi:namedview
     id="base"
     pagecolor="#ffffff"
     bordercolor="#666666"
     borderopacity="1.0"
     inkscape:pageopacity="0.0"
     inkscape:pageshadow="2"
     inkscape:zoom="2.8"
     inkscape:cx="18.007205"
     inkscape:cy="17.729253"
     inkscape:document-units="mm"
     inkscape:current-layer="layer1"
     showgrid="false"
     fit-margin-top="0"
     fit-margin-left="0"
     fit-margin-right="0"
     fit-margin-bottom="0"
     inkscape:window-width="1366"
     inkscape:window-height="705"
     inkscape:window-x="-8"
     inkscape:window-y="-8"
     inkscape:window-maximized="1" />
  <metadata
     id="metadata10515">
    <rdf:RDF>
      <cc:Work
         rdf:about="">
        <dc:format>image/svg+xml</dc:format>
        <dc:type
           rdf:resource="http://purl.org/dc/dcmitype/StillImage" />
        <dc:title></dc:title>
      </cc:Work>
    </rdf:RDF>
  </metadata>
  <g
     inkscape:label="Layer 1"
     inkscape:groupmode="layer"
     id="layer1"
     transform="translate(-30.994056,-89.571786)">
    <g
       id="g3647"
       style="fill:#ffffff;fill-opacity:1"
       transform="matrix(0.00165669,0.00395326,-0.00395326,0.00165669,43.662445,93.608341)" />
    <g
       id="g3649"
       style="fill:#ffffff;fill-opacity:1"
       transform="matrix(0.00165669,0.00395326,-0.00395326,0.00165669,43.662445,93.608341)" />
    <g
       id="g3651"
       style="fill:#ffffff;fill-opacity:1"
       transform="matrix(0.00165669,0.00395326,-0.00395326,0.00165669,43.662445,93.608341)" />
    <g
       id="g3653"
       style="fill:#ffffff;fill-opacity:1"
       transform="matrix(0.00165669,0.00395326,-0.00395326,0.00165669,43.662445,93.608341)" />
    <g
       id="g3655"
       style="fill:#ffffff;fill-opacity:1"
       transform="matrix(0.00165669,0.00395326,-0.00395326,0.00165669,43.662445,93.608341)" />
    <g
       id="g3657"
       style="fill:#ffffff;fill-opacity:1"
       transform="matrix(0.00165669,0.00395326,-0.00395326,0.00165669,43.662445,93.608341)" />
    <g
       id="g3659"
       style="fill:#ffffff;fill-opacity:1"
       transform="matrix(0.00165669,0.00395326,-0.00395326,0.00165669,43.662445,93.608341)" />
    <g
       id="g3661"
       style="fill:#ffffff;fill-opacity:1"
       transform="matrix(0.00165669,0.00395326,-0.00395326,0.00165669,43.662445,93.608341)" />
    <g
       id="g3663"
       style="fill:#ffffff;fill-opacity:1"
       transform="matrix(0.00165669,0.00395326,-0.00395326,0.00165669,43.662445,93.608341)" />
    <g
       id="g3665"
       style="fill:#ffffff;fill-opacity:1"
       transform="matrix(0.00165669,0.00395326,-0.00395326,0.00165669,43.662445,93.608341)" />
    <g
       id="g3667"
       style="fill:#ffffff;fill-opacity:1"
       transform="matrix(0.00165669,0.00395326,-0.00395326,0.00165669,43.662445,93.608341)" />
    <g
       id="g3669"
       style="fill:#ffffff;fill-opacity:1"
       transform="matrix(0.00165669,0.00395326,-0.00395326,0.00165669,43.662445,93.608341)" />
    <g
       id="g3671"
       style="fill:#ffffff;fill-opacity:1"
       transform="matrix(0.00165669,0.00395326,-0.00395326,0.00165669,43.662445,93.608341)" />
    <g
       id="g3673"
       style="fill:#ffffff;fill-opacity:1"
       transform="matrix(0.00165669,0.00395326,-0.00395326,0.00165669,43.662445,93.608341)" />
    <g
       id="g3675"
       style="fill:#ffffff;fill-opacity:1"
       transform="matrix(0.00165669,0.00395326,-0.00395326,0.00165669,43.662445,93.608341)" />
    <g
       id="g11275"
       transform="matrix(0.76037412,0,0,0.76037412,7.4269779,24.316764)">
      <path
         id="path3635"
         d="m 45.59823,85.820007 c -0.07325,0.0017 -0.146525,0.01054 -0.21918,0.02784 -2.739541,0.54529 -5.473125,1.119379 -8.215269,1.647042 -0.179566,0.04375 -0.378852,0.09793 -0.487902,0.259888 -0.155431,0.257952 -0.07568,0.664193 0.231903,0.76868 0.299122,0.06857 0.607324,-0.0021 0.902494,-0.05816 -0.04374,0.292564 -0.0992,0.588386 -0.225272,0.858095 -0.06529,0.162608 -0.263266,0.169108 -0.407594,0.212861 -1.605201,0.332399 -3.210306,0.662152 -4.816163,0.991287 -0.180896,0.0431 -0.385888,0.08759 -0.498235,0.252154 -0.187161,0.28429 -0.11759,0.823076 0.342168,0.884239 2.235234,-0.379531 3.16967,-0.585593 4.762631,-0.870472 -0.114988,0.530274 -0.331026,1.029831 -0.487768,1.54835 -0.19919,0.658269 -0.453281,1.298798 -0.662264,1.953802 -0.115585,0.329788 0.01041,0.687734 0.235759,0.939157 0.686996,0.801941 1.393019,1.586296 2.097672,2.372562 -1.253838,0.24228 -2.500563,0.523052 -3.755076,0.761409 -0.855689,0.199678 -0.677338,1.262621 0.152231,1.126494 1.01089,-0.15216 2.004198,-0.400283 3.007242,-0.596197 0.257368,-0.04441 0.548567,-0.174996 0.790205,-0.0091 0.280809,0.151507 0.39572,0.541962 0.227238,0.814936 -0.10772,0.180894 -0.311555,0.267132 -0.508779,0.308926 -0.633464,0.13648 -1.270821,0.25723 -1.904941,0.39045 -0.211546,0.0444 -0.458389,0.11828 -0.540027,0.34358 -0.179585,0.33044 0.145599,0.75816 0.50477,0.72877 0.329792,-0.003 0.646495,-0.10777 0.967786,-0.16784 1.187235,-0.23706 2.36543,-0.51719 3.553977,-0.74641 0.174361,-0.03 0.349378,0.003 0.521792,0.032 0.390495,0.0764 0.77116,-0.0823 1.154484,-0.13257 1.75537,-0.35134 3.510816,-0.701365 5.264914,-1.058581 0.285397,-0.05616 0.581184,-0.0876 0.84634,-0.213634 0.252703,-0.121469 0.431055,-0.357135 0.521175,-0.617699 0.710475,-2.083215 1.408575,-4.171108 2.108641,-6.257586 0.116877,-0.360481 0.09669,-0.784166 -0.1632,-1.078689 C 50.299829,90.51069 49.63826,89.8367 49.052449,89.09876 48.652161,88.627914 48.24208,88.165506 47.830669,87.705107 47.294496,87.12651 46.813726,86.494986 46.243646,85.948387 46.037901,85.87149 45.817989,85.814511 45.59823,85.81999 Z m -9.934686,1.990932 v 1.58e-4 c -0.290274,0.01027 -0.570139,0.108327 -0.854225,0.163045 -0.325821,0.06688 -0.651372,0.134317 -0.977212,0.201106 -0.148839,0.03547 -0.317648,0.07203 -0.410101,0.207446 -0.177753,0.301523 -0.04042,0.710817 0.281696,0.727532 0.335575,0.01997 0.654534,-0.09911 0.979217,-0.161657 0.32586,-0.06688 0.651527,-0.1343 0.977386,-0.201102 0.148819,-0.03547 0.317532,-0.07204 0.409946,-0.207447 0.177754,-0.301528 0.04056,-0.710803 -0.281541,-0.727532 -0.04353,-0.0027 -0.08787,-0.0017 -0.125166,-0.0015 z"
         style="opacity:1;fill:#212280;fill-opacity:1;stroke-width:0.06530451"
         inkscape:connector-curvature="0" />
      <path
         id="path3637"
         d="m 45.882553,88.249782 c 0.0418,-0.125385 0.09469,-0.24881 0.174363,-0.355257 0.152813,-0.02808 0.34938,-0.06465 0.459744,0.07771 0.304973,0.306278 0.562925,0.655657 0.87051,0.959976 0.142363,0.162608 0.36244,0.343502 0.261218,0.586434 -0.268402,0.839163 -0.5897,1.662653 -0.83198,2.509 -0.127997,0.424479 0.385949,0.847652 0.771899,0.627576 0.217464,-0.08359 0.319339,-0.306931 0.376808,-0.516559 0.124731,-0.453213 0.314767,-0.884876 0.425784,-1.342007 0.0078,0.03526 0.01633,0.07053 0.02482,0.106446 0.02677,-0.172404 0.06792,-0.341542 0.105139,-0.511334 0.273626,0.03788 0.40097,0.30889 0.574681,0.489784 0.223993,0.271013 0.500885,0.505457 0.67133,0.816959 0.13518,0.288646 0.141711,0.636719 0.0026,0.925365 -0.397704,1.210746 -0.813041,2.415614 -1.209439,3.627012 -0.05355,0.169139 -0.163262,0.350033 -0.355257,0.376154 -0.188077,-0.01894 -0.305625,-0.190689 -0.429051,-0.314114 -0.778429,-0.875734 -1.5549,-1.753426 -2.328105,-2.633731 -0.269055,-0.34089 -0.644556,-0.612556 -0.797368,-1.032464 -0.09339,-0.225954 -0.08294,-0.483907 -0.0046,-0.713126 0.40946,-1.229031 0.839163,-2.450878 1.236868,-3.683827 z"
         style="opacity:1;fill:#ffffff;fill-opacity:1;stroke-width:0.06530451"
         inkscape:connector-curvature="0" />
      <g
         transform="matrix(0.00165669,0.00395326,-0.00395326,0.00165669,43.662445,93.608341)"
         style="fill:#ffffff;fill-opacity:1"
         id="g3645">
        <path
           inkscape:connector-curvature="0"
           id="path3643"
           d="m 120.027,541.902 c 26.6,0 53.5,-8.8 75.7,-27 l 288.1,-234.7 290.899,237 c 22.301,18.101 49.101,27 75.7,27 34.8,0 69.4,-15.1 93.101,-44.2 41.899,-51.399 34.1,-127 -17.2,-168.8 l -366.7,-298.8 c -44.1,-36 -107.5,-36 -151.6,0 l -363.8,296.4 c -51.4,41.9 -59.1,117.5 -17.3,168.9 23.8,29.1 58.3,44.2 93.1,44.2 z"
           style="fill:#ffffff;fill-opacity:1" />
      </g>
      <path
         inkscape:connector-curvature="0"
         style="fill:#ffffff;fill-opacity:1;stroke-width:0.00428636"
         d="m 39.603296,95.737774 c 0.04406,0.105157 0.123424,0.196918 0.232149,0.254532 l 1.405137,0.750109 -0.454988,1.542634 c -0.03461,0.118149 -0.02545,0.238839 0.01856,0.343993 0.05766,0.137571 0.174673,0.249338 0.32899,0.294825 0.272622,0.08048 0.558565,-0.07559 0.638822,-0.347646 l 0.573711,-1.944678 c 0.06927,-0.233981 -0.03577,-0.484618 -0.251158,-0.599315 L 40.31968,95.085242 c -0.25041,-0.133948 -0.562007,-0.03914 -0.695968,0.211258 -0.07562,0.142297 -0.07816,0.3037 -0.02036,0.441274 z"
         id="path3679" />
      <rect
         transform="matrix(0.98500587,-0.17252081,-0.31408037,0.9493964,0,0)"
         ry="0.62105203"
         y="105.95174"
         x="73.51696"
         height="5.9615455"
         width="5.9762769"
         id="rect3683"
         style="opacity:1;fill:#ffffff;fill-opacity:1;fill-rule:evenodd;stroke-width:0.09647211" />
      <path
         inkscape:connector-curvature="0"
         id="path3685"
         d="m 34.3512,92.264947 v 1.5e-4 c -0.290275,0.01028 -0.570139,0.108328 -0.854225,0.16305 -0.325821,0.06687 -1.688536,0.364797 -2.014376,0.431586 -0.148839,0.03546 -0.317686,0.07203 -0.41012,0.207447 -0.177754,0.30152 -0.04042,0.710816 0.281715,0.727531 0.335575,0.01997 1.691678,-0.329597 2.016381,-0.392137 0.325821,-0.06688 0.651488,-0.134302 0.977367,-0.201103 0.148799,-0.03547 0.317532,-0.07205 0.409926,-0.20745 0.177754,-0.301524 0.04058,-0.710803 -0.281541,-0.727532 -0.04353,-0.0027 -0.08783,-0.0017 -0.125127,-0.0015 z"
         style="opacity:1;fill:#212280;fill-opacity:1;stroke-width:0.06530451"
         sodipodi:nodetypes="ccccccccccc" />
    </g>
  </g>
</svg>
