<?xml version="1.0" encoding="UTF-8" standalone="no"?>
<svg
   xmlns:dc="http://purl.org/dc/elements/1.1/"
   xmlns:cc="http://creativecommons.org/ns#"
   xmlns:rdf="http://www.w3.org/1999/02/22-rdf-syntax-ns#"
   xmlns:svg="http://www.w3.org/2000/svg"
   xmlns="http://www.w3.org/2000/svg"
   xmlns:sodipodi="http://sodipodi.sourceforge.net/DTD/sodipodi-0.dtd"
   xmlns:inkscape="http://www.inkscape.org/namespaces/inkscape"
   width="620.074"
   height="416.45"
   viewBox="0 0 620.074 416.45"
   version="1.1"
   id="svg11933"
   sodipodi:docname="register.svg"
   inkscape:version="0.92.4 (5da689c313, 2019-01-14)">
  <metadata
     id="metadata11939">
    <rdf:RDF>
      <cc:Work
         rdf:about="">
        <dc:format>image/svg+xml</dc:format>
        <dc:type
           rdf:resource="http://purl.org/dc/dcmitype/StillImage" />
        <dc:title></dc:title>
      </cc:Work>
    </rdf:RDF>
  </metadata>
  <defs
     id="defs11937" />
  <sodipodi:namedview
     pagecolor="#ffffff"
     bordercolor="#666666"
     borderopacity="1"
     objecttolerance="10"
     gridtolerance="10"
     guidetolerance="10"
     inkscape:pageopacity="0"
     inkscape:pageshadow="2"
     inkscape:window-width="1366"
     inkscape:window-height="705"
     id="namedview11935"
     showgrid="false"
     showguides="true"
     inkscape:zoom="0.69333812"
     inkscape:cx="447.52571"
     inkscape:cy="291.28308"
     inkscape:window-x="-8"
     inkscape:window-y="-8"
     inkscape:window-maximized="1"
     inkscape:current-layer="svg11933" />
  <g
     transform="translate(-39.094 -33.265)"
     id="g11931">
    <g
       transform="translate(99.891 30.335)"
       id="g11301">
      <g
         transform="translate(299.472 13.159)"
         id="g11287" />
      <g
         transform="translate(420.238 13.118)"
         id="g11291" />
      <g
         transform="translate(23.651 185.814)"
         id="g11295">
        <path
           d="M141.344,252.939l.466,2.906-2.594.415-.453-2.827a12.45,12.45,0,0,1-6.791-1.041l.919-3.393a10.6,10.6,0,0,0,5.328,1.036l-.694-4.332c-2.992-.238-6.362-.684-6.956-4.394-.44-2.749,1.18-5.43,5.2-6.553l-.461-2.88,2.594-.416.453,2.829a11.885,11.885,0,0,1,5.519.738l-.786,3.4a10.789,10.789,0,0,0-4.185-.714l.707,4.411c2.987.213,6.305.667,6.891,4.325C146.937,249.144,145.338,251.794,141.344,252.939Zm-4.429-11.051-.591-3.683c-1.324.531-1.748,1.371-1.611,2.227C134.858,241.34,135.715,241.708,136.915,241.888Zm5.463,5.539c-.146-.909-.977-1.28-2.154-1.492l.573,3.58C142.048,249.022,142.511,248.256,142.378,247.426Z"
           transform="translate(-130.499 -231.459)"
           fill="#e0e0e0"
           id="path11293" />
      </g>
      <g
         transform="translate(0 127.92)"
         id="g11299">
        <path
           d="M107.436,178.831l-1.6,1.045-.931-1.433,1.561-1.016a8.1,8.1,0,0,1-1.176-4.313l2.261-.35a6.894,6.894,0,0,0,.792,3.441l2.392-1.558c-.649-1.841-1.274-3.963.774-5.3,1.519-.989,3.54-.734,5.271,1.362l1.591-1.036.932,1.433-1.561,1.016a7.726,7.726,0,0,1,1.019,3.477l-2.228.431a6.992,6.992,0,0,0-.682-2.677l-2.435,1.586c.663,1.832,1.27,3.925-.749,5.239C111.17,181.153,109.172,180.9,107.436,178.831Zm5.4-5.553,2.033-1.325c-.666-.647-1.277-.677-1.75-.37C112.619,171.909,112.625,172.516,112.836,173.278Zm-1.849,4.711c.5-.326.5-.918.317-1.675l-1.977,1.287C109.951,178.214,110.528,178.287,110.987,177.988Z"
           transform="translate(-104.9 -168.795)"
           fill="#e0e0e0"
           id="path11297" />
      </g>
    </g>
    <g
       transform="translate(39.692 436.622)"
       id="g11313">
      <g
         transform="translate(0)"
         id="g11311">
        <g
           transform="translate(0 0.24)"
           id="g11305">
          <line
             x2="619.476"
             fill="#263238"
             id="line11303" />
        </g>
        <g
           transform="translate(0)"
           id="g11309">
          <path
             d="M659.217,470.338c0,.133-138.685.241-309.723.241-171.1,0-309.752-.108-309.752-.241s138.656-.24,309.752-.24C520.532,470.1,659.217,470.205,659.217,470.338Z"
             transform="translate(-39.742 -470.098)"
             fill="#263238"
             id="path11307" />
        </g>
      </g>
    </g>
    <g
       transform="translate(186.266 63.766)"
       id="g11577">
      <g
         transform="translate(0 0)"
         id="g11575">
        <g
           transform="translate(72.067 62.938)"
           id="g11325">
          <path
             d="M639.114,134.644H287.376A10.979,10.979,0,0,0,276.4,145.623v248.44a10.979,10.979,0,0,0,10.979,10.98h135s8.587,26.554-18.033,40.293H530.569s-30.056-10.3-22.327-40.293H639.115a10.98,10.98,0,0,0,10.979-10.979V145.623A10.98,10.98,0,0,0,639.114,134.644Z"
             transform="translate(-276.397 -134.644)"
             fill="#263238"
             id="path11315" />
          <g
             transform="translate(179.906 242.174)"
             id="g11319">
            <path
               d="M482.765,398.869c4.785,6.838-2.7,14.327-9.544,9.543a2.407,2.407,0,0,1-.588-.589c-4.772-6.837,2.708-14.316,9.543-9.542A2.39,2.39,0,0,1,482.765,398.869Z"
               transform="translate(-471.126 -396.772)"
               fill="#455a64"
               id="path11317" />
          </g>
          <g
             transform="translate(6.056 4.552)"
             id="g11323">
            <path
               d="M9.7,0h342.19a9.7,9.7,0,0,1,9.7,9.7V220.4a0,0,0,0,1,0,0H0a0,0,0,0,1,0,0V9.7A9.7,9.7,0,0,1,9.7,0Z"
               fill="#fff"
               id="path11321" />
          </g>
        </g>
        <g
           transform="translate(95.217 90.217)"
           id="g11453">
          <g
             transform="translate(13.542 27.028)"
             id="g11329">
            <rect
               width="11.86"
               height="132.444"
               fill="#507fe8"
               id="rect11327"
               style="fill:#3f5fa6;fill-opacity:1" />
          </g>
          <g
             transform="translate(36.437 72.011)"
             id="g11333">
            <rect
               width="11.859"
               height="87.461"
               fill="#507fe8"
               id="rect11331"
               style="fill:#3f5fa6;fill-opacity:1" />
          </g>
          <g
             transform="translate(59.332 43.49)"
             id="g11337">
            <rect
               width="11.86"
               height="116.655"
               fill="#507fe8"
               id="rect11335"
               style="fill:#3f5fa6;fill-opacity:1" />
          </g>
          <g
             transform="translate(82.227 32.142)"
             id="g11341">
            <rect
               width="11.86"
               height="127.33"
               fill="#507fe8"
               id="rect11339" />
          </g>
          <g
             transform="translate(105.123 74.703)"
             id="g11345">
            <rect
               width="11.859"
               height="84.769"
               fill="#507fe8"
               id="rect11343" />
          </g>
          <g
             transform="translate(128.018 91.328)"
             id="g11349">
            <rect
               width="11.86"
               height="68.144"
               fill="#507fe8"
               id="rect11347" />
          </g>
          <g
             transform="translate(150.913 40.622)"
             id="g11353">
            <rect
               width="11.86"
               height="118.85"
               fill="#507fe8"
               id="rect11351"
               style="fill:#3f5fa6;fill-opacity:1" />
          </g>
          <g
             transform="translate(173.809 62.049)"
             id="g11357">
            <rect
               width="11.859"
               height="97.423"
               fill="#507fe8"
               id="rect11355" />
          </g>
          <g
             transform="translate(196.704 44.927)"
             id="g11361">
            <rect
               width="11.86"
               height="114.545"
               fill="#507fe8"
               id="rect11359"
               style="fill:#3f5fa6;fill-opacity:1" />
          </g>
          <g
             transform="translate(219.6 81.434)"
             id="g11365">
            <rect
               width="11.859"
               height="78.038"
               fill="#507fe8"
               id="rect11363" />
          </g>
          <g
             transform="translate(265.266 40.622)"
             id="g11369">
            <rect
               width="11.859"
               height="118.85"
               fill="#507fe8"
               id="rect11367"
               style="fill:#3f5fa6;fill-opacity:1" />
          </g>
          <g
             transform="translate(313.891 117.088)"
             id="g11373">
            <rect
               width="11.86"
               height="40.667"
               fill="#507fe8"
               id="rect11371" />
          </g>
          <g
             transform="translate(290.188 81.434)"
             id="g11377">
            <rect
               width="11.86"
               height="78.038"
               fill="#507fe8"
               id="rect11375" />
          </g>
          <g
             transform="translate(242.495 66.585)"
             id="g11381">
            <rect
               width="11.859"
               height="92.887"
               fill="#507fe8"
               id="rect11379" />
          </g>
          <g
             transform="translate(20.111 41.177)"
             id="g11385">
            <path
               d="M632.2,211.475a6.229,6.229,0,0,1-1.041-.167l-3.017-.619a46.879,46.879,0,0,0-4.937-.784,61.333,61.333,0,0,0-6.791-.567,78.482,78.482,0,0,0-18.563,1.6,81.869,81.869,0,0,0-23.031,8.718,94.227,94.227,0,0,0-23.32,18.568c-7.268,7.965-13.394,17.8-19.656,28.217-6.328,10.349-12.763,21.592-22.086,31.218a57.823,57.823,0,0,1-16.275,12.172,34.2,34.2,0,0,1-10.031,3.066,32.422,32.422,0,0,1-10.637-.358,43.391,43.391,0,0,1-18.522-9.715,86.438,86.438,0,0,1-13.72-14.972c-7.959-10.718-13.618-22.272-19.671-32.795-5.974-10.558-12.12-20.429-19.648-28.135a53.379,53.379,0,0,0-12.149-9.556,51.34,51.34,0,0,0-6.564-3.186,52.33,52.33,0,0,0-6.7-1.984,48.623,48.623,0,0,0-24.351.681,54.917,54.917,0,0,0-16.711,8.036A61.083,61.083,0,0,0,326,228.775c-.864.975-1.541,1.737-2.043,2.3a6.226,6.226,0,0,1-.734.758,6.175,6.175,0,0,1,.627-.844l1.949-2.4a57.03,57.03,0,0,1,8.672-8.107,54.643,54.643,0,0,1,16.812-8.332,49.174,49.174,0,0,1,24.758-.883c9.119,1.816,18.406,7.055,26,14.873,7.677,7.795,13.9,17.732,19.923,28.3,6.1,10.538,11.77,22.046,19.653,32.625a85.47,85.47,0,0,0,13.524,14.737,42.169,42.169,0,0,0,17.947,9.426,31.143,31.143,0,0,0,10.178.345,32.909,32.909,0,0,0,9.652-2.948,56.65,56.65,0,0,0,15.906-11.885c9.186-9.453,15.616-20.606,21.973-30.945,6.292-10.4,12.495-20.292,19.888-28.324a94.6,94.6,0,0,1,23.68-18.648,81.875,81.875,0,0,1,23.333-8.623,77.249,77.249,0,0,1,18.736-1.385,58.782,58.782,0,0,1,6.824.692,42.8,42.8,0,0,1,4.937.914l3,.749A6.123,6.123,0,0,1,632.2,211.475Z"
               transform="translate(-323.222 -208.74)"
               fill="#263238"
               id="path11383" />
          </g>
          <path
             d="M301.942,332.866c-.27,0-.488-37.766-.488-84.344,0-46.594.218-84.353.488-84.353s.487,37.759.487,84.353C302.429,295.1,302.211,332.866,301.942,332.866Z"
             transform="translate(-301.454 -164.17)"
             fill="#263238"
             id="path11387" />
          <g
             transform="translate(7.926 168.21)"
             id="g11391">
            <path
               d="M627.857,346.726c0,.27-71.152.488-158.9.488-87.781,0-158.92-.218-158.92-.488s71.139-.487,158.92-.487C556.7,346.239,627.857,346.457,627.857,346.726Z"
               transform="translate(-310.033 -346.239)"
               fill="#263238"
               id="path11389" />
          </g>
          <g
             transform="translate(12.856 178.635)"
             id="g11395">
            <path
               d="M332.971,358.01c0,.269-3.94.487-8.8.487s-8.8-.218-8.8-.487,3.94-.487,8.8-.487S332.971,357.741,332.971,358.01Z"
               transform="translate(-315.369 -357.523)"
               fill="#263238"
               id="path11393" />
          </g>
          <g
             transform="translate(38.614 179.165)"
             id="g11399">
            <path
               d="M364.287,358.585c0,.269-4.71.487-10.518.487s-10.518-.218-10.518-.487,4.709-.488,10.518-.488S364.287,358.316,364.287,358.585Z"
               transform="translate(-343.25 -358.097)"
               fill="#263238"
               id="path11397" />
          </g>
          <g
             transform="translate(63.515 179.165)"
             id="g11403">
            <path
               d="M391.238,358.585c0,.269-4.71.487-10.517.487s-10.518-.218-10.518-.487,4.708-.488,10.518-.488S391.238,358.316,391.238,358.585Z"
               transform="translate(-370.202 -358.097)"
               fill="#263238"
               id="path11401" />
          </g>
          <g
             transform="translate(88.414 179.165)"
             id="g11407">
            <path
               d="M418.189,358.585c0,.269-4.709.487-10.517.487s-10.518-.218-10.518-.487,4.708-.488,10.518-.488S418.189,358.316,418.189,358.585Z"
               transform="translate(-397.153 -358.097)"
               fill="#263238"
               id="path11405" />
          </g>
          <g
             transform="translate(113.314 179.165)"
             id="g11411">
            <path
               d="M445.141,358.585c0,.269-4.71.487-10.517.487s-10.519-.218-10.519-.487,4.709-.488,10.519-.488S445.141,358.316,445.141,358.585Z"
               transform="translate(-424.104 -358.097)"
               fill="#263238"
               id="path11409" />
          </g>
          <g
             transform="translate(138.214 179.165)"
             id="g11415">
            <path
               d="M472.092,358.585c0,.269-4.709.487-10.517.487s-10.518-.218-10.518-.487,4.708-.488,10.518-.488S472.092,358.316,472.092,358.585Z"
               transform="translate(-451.056 -358.097)"
               fill="#263238"
               id="path11413" />
          </g>
          <g
             transform="translate(163.113 179.165)"
             id="g11419">
            <path
               d="M499.043,358.585c0,.269-4.709.487-10.517.487s-10.518-.218-10.518-.487,4.709-.488,10.518-.488S499.043,358.316,499.043,358.585Z"
               transform="translate(-478.007 -358.097)"
               fill="#263238"
               id="path11417" />
          </g>
          <g
             transform="translate(188.014 179.165)"
             id="g11423">
            <path
               d="M525.995,358.585c0,.269-4.709.487-10.517.487s-10.518-.218-10.518-.487,4.708-.488,10.518-.488S525.995,358.316,525.995,358.585Z"
               transform="translate(-504.959 -358.097)"
               fill="#263238"
               id="path11421" />
          </g>
          <g
             transform="translate(212.913 179.165)"
             id="g11427">
            <path
               d="M552.946,358.585c0,.269-4.709.487-10.517.487s-10.518-.218-10.518-.487,4.709-.488,10.518-.488S552.946,358.316,552.946,358.585Z"
               transform="translate(-531.91 -358.097)"
               fill="#263238"
               id="path11425" />
          </g>
          <g
             transform="translate(237.813 179.165)"
             id="g11431">
            <path
               d="M579.9,358.585c0,.269-4.71.487-10.517.487s-10.519-.218-10.519-.487,4.709-.488,10.519-.488S579.9,358.316,579.9,358.585Z"
               transform="translate(-558.861 -358.097)"
               fill="#263238"
               id="path11429" />
          </g>
          <g
             transform="translate(260.972 179.173)"
             id="g11435">
            <path
               d="M604.965,358.594c0,.269-4.71.487-10.517.487s-10.519-.218-10.519-.487,4.709-.488,10.519-.488S604.965,358.325,604.965,358.594Z"
               transform="translate(-583.928 -358.106)"
               fill="#263238"
               id="path11433" />
          </g>
          <g
             transform="translate(284.131 179.182)"
             id="g11439">
            <path
               d="M630.032,358.6c0,.269-4.71.487-10.517.487S609,358.872,609,358.6s4.708-.487,10.518-.487S630.032,358.334,630.032,358.6Z"
               transform="translate(-608.996 -358.116)"
               fill="#263238"
               id="path11437" />
          </g>
          <g
             transform="translate(307.29 179.191)"
             id="g11443">
            <path
               d="M655.1,358.612c0,.269-4.709.488-10.517.488s-10.518-.219-10.518-.488,4.708-.487,10.518-.487S655.1,358.343,655.1,358.612Z"
               transform="translate(-634.063 -358.125)"
               fill="#263238"
               id="path11441" />
          </g>
          <g
             transform="translate(116.874 88.118)"
             id="g11447">
            <path
               d="M432.618,260.12c.01-.2,1.455.3,1.918,2.292a4.879,4.879,0,0,1-.367,3.418,2.962,2.962,0,0,1-1.729,1.461,3.138,3.138,0,0,1-2.41-.285,4.031,4.031,0,0,1-2.059-3.779,4.2,4.2,0,0,1,1.652-3.054,2.724,2.724,0,0,1,2.266-.559c.55.165.738.431.7.49-.057.182-1.2-.365-2.363.789a3.465,3.465,0,0,0-1.033,2.385,2.91,2.91,0,0,0,1.47,2.561,1.739,1.739,0,0,0,2.449-.621,4.323,4.323,0,0,0,.5-2.638A5.984,5.984,0,0,0,432.618,260.12Z"
               transform="translate(-427.958 -259.549)"
               fill="#263238"
               id="path11445" />
          </g>
          <g
             transform="translate(273.404 44.724)"
             id="g11451">
            <path
               d="M601.6,213.006c0-.074.372-.2,1.027,0a3.976,3.976,0,0,1,2.117,1.832,5.243,5.243,0,0,1,.524,4.157,4.379,4.379,0,0,1-4.058,3.243,3.5,3.5,0,0,1-2.583-1.348,5.588,5.588,0,0,1-1.091-2.307,5.3,5.3,0,0,1,.669-4.124c1.458-2.066,3.264-1.96,3.2-1.808.087.193-1.422.484-2.391,2.287a4.586,4.586,0,0,0-.288,3.355c.313,1.22,1.252,2.612,2.528,2.62a3.255,3.255,0,0,0,2.855-2.3,4.527,4.527,0,0,0-.192-3.342A4.789,4.789,0,0,0,601.6,213.006Z"
               transform="translate(-597.384 -212.579)"
               fill="#263238"
               id="path11449" />
          </g>
        </g>
        <g
           transform="translate(0.269 0.269)"
           id="g11457">
          <rect
             width="238"
             height="185.229"
             fill="#fff"
             id="rect11455" />
        </g>
        <path
           d="M436.661,252.019c0-1.849-.088-73.449-.222-185.229l.222.222-237.98.047h-.02l.269-.269c-.009,66.767-.018,129.918-.027,185.228l-.242-.241,238,.242-238,.241h-.241v-.243c-.008-55.311-.018-118.461-.028-185.228v-.27h.289l237.98.047h.223v.223C436.75,178.57,436.664,250.171,436.661,252.019Z"
           transform="translate(-198.392 -66.52)"
           fill="#263238"
           id="path11459" />
        <g
           transform="translate(11.878 24.605)"
           id="g11553">
          <rect
             width="38.528"
             height="2.144"
             fill="#263238"
             id="rect11461" />
          <g
             transform="translate(0 5.017)"
             id="g11465">
            <rect
               width="19.039"
               height="2.144"
               fill="#263238"
               id="rect11463" />
          </g>
          <g
             transform="translate(21.966 15.647)"
             id="g11551">
            <g
               transform="translate(0 118.632)"
               id="g11469">
              <rect
                 width="6.979"
                 height="2.011"
                 fill="#263238"
                 id="rect11467" />
            </g>
            <g
               transform="translate(15.789 129.384)"
               id="g11473">
              <rect
                 width="8.925"
                 height="2.011"
                 fill="#263238"
                 id="rect11471" />
            </g>
            <g
               transform="translate(46.858 129.384)"
               id="g11477">
              <rect
                 width="8.925"
                 height="2.011"
                 fill="#263238"
                 id="rect11475" />
            </g>
            <g
               transform="translate(77.928 129.384)"
               id="g11481">
              <rect
                 width="8.925"
                 height="2.011"
                 fill="#263238"
                 id="rect11479" />
            </g>
            <g
               transform="translate(108.998 129.384)"
               id="g11485">
              <rect
                 width="8.925"
                 height="2.011"
                 fill="#263238"
                 id="rect11483" />
            </g>
            <g
               transform="translate(140.067 129.384)"
               id="g11489">
              <rect
                 width="8.925"
                 height="2.011"
                 fill="#263238"
                 id="rect11487" />
            </g>
            <g
               transform="translate(171.137 129.384)"
               id="g11493">
              <rect
                 width="8.925"
                 height="2.011"
                 fill="#263238"
                 id="rect11491" />
            </g>
            <g
               transform="translate(0 91.772)"
               id="g11497">
              <rect
                 width="6.979"
                 height="2.011"
                 fill="#263238"
                 id="rect11495" />
            </g>
            <g
               transform="translate(0 41.218)"
               id="g11501">
              <rect
                 width="6.979"
                 height="2.011"
                 fill="#263238"
                 id="rect11499" />
            </g>
            <g
               transform="translate(0 15.813)"
               id="g11505">
              <rect
                 width="6.979"
                 height="2.011"
                 fill="#263238"
                 id="rect11503" />
            </g>
            <g
               transform="translate(0.354 66.495)"
               id="g11509">
              <rect
                 width="6.979"
                 height="2.011"
                 fill="#263238"
                 id="rect11507" />
            </g>
            <g
               transform="translate(10.381)"
               id="g11513">
              <path
                 d="M415.691,230.731s-.253.017-.747.025l-2.2.024-8.444.045-31.057.077-102.465.07-24.282,0h-.237v-.237c.032-34.269.06-64.424.08-86.028.03-10.787.055-19.436.072-25.4.018-2.967.031-5.266.041-6.839.009-.77.017-1.358.021-1.77s.022-.6.022-.6.015.2.022.6.012,1,.022,1.77c.009,1.572.023,3.871.041,6.839.017,5.968.041,14.617.071,25.4.02,21.6.049,51.759.081,86.028l-.237-.237,24.282,0,102.465.07,31.057.077,8.444.045,2.2.024C415.438,230.715,415.691,230.731,415.691,230.731Z"
                 transform="translate(-246.261 -110.088)"
                 fill="#263238"
                 id="path11511" />
            </g>
            <g
               transform="translate(17.37 67.26)"
               id="g11517">
              <path
                 d="M418.233,183.13c0,.133-36.806.24-82.2.24-45.41,0-82.209-.107-82.209-.24s36.8-.24,82.209-.24C381.426,182.89,418.233,183,418.233,183.13Z"
                 transform="translate(-253.825 -182.89)"
                 fill="#263238"
                 id="path11515" />
            </g>
            <g
               transform="translate(17.37 41.983)"
               id="g11521">
              <path
                 d="M418.233,155.77c0,.133-36.806.241-82.2.241-45.41,0-82.209-.108-82.209-.241s36.8-.24,82.209-.24C381.426,155.53,418.233,155.638,418.233,155.77Z"
                 transform="translate(-253.825 -155.53)"
                 fill="#263238"
                 id="path11519" />
            </g>
            <g
               transform="translate(17.37 16.578)"
               id="g11525">
              <path
                 d="M418.233,128.272c0,.133-36.806.24-82.2.24-45.41,0-82.209-.107-82.209-.24s36.8-.24,82.209-.24C381.426,128.032,418.233,128.139,418.233,128.272Z"
                 transform="translate(-253.825 -128.032)"
                 fill="#263238"
                 id="path11523" />
            </g>
            <g
               transform="translate(17.37 92.537)"
               id="g11529">
              <path
                 d="M418.233,210.49c0,.132-36.806.24-82.2.24-45.41,0-82.209-.108-82.209-.24s36.8-.241,82.209-.241C381.426,210.249,418.233,210.357,418.233,210.49Z"
                 transform="translate(-253.825 -210.249)"
                 fill="#263238"
                 id="path11527" />
            </g>
            <g
               transform="translate(19.065 1.864)"
               id="g11533">
              <path
                 d="M255.66,225.446V203.019l13.977-21.7,9.485,7.277,19.469-30.242,11.482,8.087,15.976-27.9,12.98,10.574,19.469-37.01,20.967,41.365,16.974-20.7,19.968-5.714v98.386Z"
                 transform="translate(-255.66 -112.106)"
                 fill="#455a64"
                 id="path11531" />
            </g>
            <g
               transform="translate(19.065 8.721)"
               id="g11537">
              <path
                 d="M418.372,119.662s-.118.013-.352.018l-1.04.018-4.052.034-15.323.063.105-.052-16.435,21.449-.057.074h-.094l-41.11.042.2-.113-17.287,28.773L305.96,198.175l-.18.3-.206-.283L283.3,167.579l.323-.01L263.33,199.235l-5.649,8.76q-.973,1.492-1.494,2.289c-.34.516-.527.773-.527.773s.153-.279.478-.806l1.445-2.32,5.558-8.818,20.147-31.757.154-.242.17.233c6.656,9.109,14.189,19.42,22.336,30.571l-.385.017,16.951-28.215,17.3-28.762.067-.113h.131l41.11.042-.151.074,16.525-21.38.041-.053h.066l15.323.062,4.052.035,1.04.018C418.254,119.65,418.372,119.662,418.372,119.662Z"
                 transform="translate(-255.66 -119.528)"
                 fill="#263238"
                 id="path11535" />
            </g>
            <g
               transform="translate(50.443 62.326)"
               id="g11541">
              <path
                 d="M292.777,179.068a1.578,1.578,0,1,1-1.577-1.519A1.548,1.548,0,0,1,292.777,179.068Z"
                 transform="translate(-289.623 -177.549)"
                 fill="#263238"
                 id="path11539" />
            </g>
            <g
               transform="translate(97.861 35.374)"
               id="g11545">
              <path
                 d="M344.1,149.895a1.579,1.579,0,1,1-1.578-1.518A1.549,1.549,0,0,1,344.1,149.895Z"
                 transform="translate(-340.948 -148.377)"
                 fill="#263238"
                 id="path11543" />
            </g>
            <g
               transform="translate(134.724 28.752)"
               id="g11549">
              <ellipse
                 cx="1.577"
                 cy="1.519"
                 rx="1.577"
                 ry="1.519"
                 fill="#263238"
                 id="ellipse11547" />
            </g>
          </g>
        </g>
        <g
           transform="translate(6.549 6.061)"
           id="g11565">
          <path
             d="M209.145,74.912a1.832,1.832,0,1,1-1.832-1.832A1.832,1.832,0,0,1,209.145,74.912Z"
             transform="translate(-205.481 -73.08)"
             fill="#263238"
             id="path11555" />
          <g
             transform="translate(5.328)"
             id="g11559">
            <path
               d="M214.913,74.912a1.833,1.833,0,1,1-1.833-1.832A1.832,1.832,0,0,1,214.913,74.912Z"
               transform="translate(-211.248 -73.08)"
               fill="#263238"
               id="path11557" />
          </g>
          <g
             transform="translate(10.657)"
             id="g11563">
            <path
               d="M220.68,74.912a1.832,1.832,0,1,1-1.832-1.832A1.832,1.832,0,0,1,220.68,74.912Z"
               transform="translate(-217.016 -73.08)"
               fill="#263238"
               id="path11561" />
          </g>
        </g>
        <g
           transform="translate(0.535 14.863)"
           id="g11573">
          <g
             transform="translate(0 0.241)"
             id="g11569">
            <line
               x2="237.535"
               fill="#263238"
               id="line11567" />
          </g>
          <path
             d="M436.507,82.849c0,.133-53.178.24-118.762.24-65.606,0-118.774-.107-118.774-.24s53.167-.241,118.774-.241C383.328,82.608,436.507,82.716,436.507,82.849Z"
             transform="translate(-198.971 -82.608)"
             fill="#263238"
             id="path11571" />
        </g>
      </g>
    </g>
    <g
       transform="translate(39.094 266.695)"
       id="g11633">
      <path
         d="M39.857,378.923l5,17.914A20.648,20.648,0,0,0,68,411.678h0s9.464,13.468,13.467,15.652l3.64,28.756H106.7l1.707-11.648a113.5,113.5,0,0,0,49.107,8.736c27.332-1.456,33.884-9.464,33.884-9.464l3.276,12.376h24.388l4-31.668s29.848-26.572,22.2-57.511c0,0,21.476-14.66,14.2-35.54l-4.368-1.952s-6.916,12.375-14.2,14.923c0,0-19.591-62.971-93.333-57.875,0,0-24.6-1.092-47.9,9.828,0,0-25.844-13.468-45.136-3.64,0,0-.364,22.2,10.556,34.944,0,0-9.464,21.112-10.192,25.48L52.077,354.2A20.648,20.648,0,0,0,39.857,378.923Z"
         transform="translate(-39.094 -286.169)"
         fill="#507fe8"
         id="path11579"
         style="fill:#e8505b;fill-opacity:1" />
      <g
         transform="translate(40.849 59.678)"
         id="g11583">
        <path
           d="M95.374,356.8a6.032,6.032,0,1,1-6.032-6.033A6.032,6.032,0,0,1,95.374,356.8Z"
           transform="translate(-83.309 -350.764)"
           fill="#263238"
           id="path11581" />
      </g>
      <g
         transform="translate(80.704 10.996)"
         opacity="0.6"
         id="g11587">
        <path
           d="M126.448,303.373l2.712,7.592s32.806-9.761,53.954,0l2.982-7.592S160.339,291.444,126.448,303.373Z"
           transform="translate(-126.448 -298.071)"
           id="path11585" />
      </g>
      <g
         transform="translate(77.288 19.49)"
         id="g11591">
        <path
           d="M188.477,315.15a3.852,3.852,0,0,1-.606-.351c-.384-.248-.963-.6-1.714-1.029a40.962,40.962,0,0,0-6.679-3.028,51.353,51.353,0,0,0-10.589-2.438,84.876,84.876,0,0,0-13.321-.5,130.777,130.777,0,0,0-13.313,1.04,53.864,53.864,0,0,0-10.588,2.465,34.9,34.9,0,0,0-6.636,3.1c-1.487.893-2.247,1.489-2.28,1.443a3.867,3.867,0,0,1,.54-.444,19.47,19.47,0,0,1,1.64-1.158,32.484,32.484,0,0,1,6.621-3.263,52.205,52.205,0,0,1,10.64-2.584,123.951,123.951,0,0,1,13.36-1.082,82.3,82.3,0,0,1,13.394.54,49.891,49.891,0,0,1,10.646,2.558,37.465,37.465,0,0,1,6.659,3.187c.741.46,1.3.835,1.673,1.11A3.783,3.783,0,0,1,188.477,315.15Z"
           transform="translate(-122.751 -307.265)"
           fill="#263238"
           id="path11589" />
      </g>
      <g
         transform="translate(8.277 81.574)"
         opacity="0.2"
         id="g11595">
        <path
           d="M54.34,377.663a6.7,6.7,0,0,0-1.617-2.484,2.576,2.576,0,0,0-2.773-.491h0A3.929,3.929,0,0,0,48.57,376.9a21.8,21.8,0,0,0,2.663,16.066,2.807,2.807,0,0,0,1.874,1.316c1.654.283,2.519-1.227,2.926-2.591C57.407,387.081,56.281,382.065,54.34,377.663Z"
           transform="translate(-48.053 -374.465)"
           id="path11593" />
      </g>
      <g
         transform="translate(15.669 67.975)"
         id="g11599">
        <path
           d="M68.2,391.36a7.637,7.637,0,0,1,.023-1.385c.03-.443.057-.985.044-1.615s.027-1.347-.037-2.138c-.037-.791-.081-1.656-.205-2.579-.079-.928-.267-1.905-.439-2.936a42.068,42.068,0,0,0-1.863-6.534,42.028,42.028,0,0,0-2.991-6.1c-.562-.881-1.076-1.733-1.64-2.475-.526-.769-1.072-1.442-1.574-2.054-.482-.63-.987-1.141-1.4-1.613s-.8-.86-1.114-1.17a7.691,7.691,0,0,1-.944-1.013,7.58,7.58,0,0,1,1.074.877,14.506,14.506,0,0,1,1.179,1.12c.44.458.965.957,1.469,1.579.524.6,1.091,1.272,1.637,2.039.584.74,1.117,1.593,1.7,2.479a36.5,36.5,0,0,1,4.91,12.785c.163,1.046.338,2.037.4,2.977.108.935.134,1.812.149,2.611.042.8-.015,1.522-.034,2.155a14.613,14.613,0,0,1-.127,1.622A7.754,7.754,0,0,1,68.2,391.36Z"
           transform="translate(-56.054 -359.745)"
           fill="#263238"
           id="path11597" />
      </g>
      <g
         transform="translate(15.706 67.174)"
         id="g11603">
        <path
           d="M74.829,378.411c-.094.026-.451-1.527-1.472-3.859a28.518,28.518,0,0,0-2.117-3.925,28.573,28.573,0,0,0-7.517-7.835,28.484,28.484,0,0,0-3.835-2.276c-2.288-1.117-3.823-1.537-3.794-1.631a4.965,4.965,0,0,1,1.087.256,10.491,10.491,0,0,1,1.244.41c.476.185,1.032.369,1.608.657a25.744,25.744,0,0,1,3.942,2.221,27.088,27.088,0,0,1,7.638,7.96,25.773,25.773,0,0,1,2.056,4.031,17.088,17.088,0,0,1,.589,1.634,10.461,10.461,0,0,1,.358,1.26A4.977,4.977,0,0,1,74.829,378.411Z"
           transform="translate(-56.095 -358.878)"
           fill="#263238"
           id="path11601" />
      </g>
      <g
         transform="translate(9.271 82.46)"
         id="g11607">
        <path
           d="M49.161,376.913c0,.03-.176-.428.313-.949a1.861,1.861,0,0,1,1.1-.522,2.039,2.039,0,0,1,1.541.474A8.86,8.86,0,0,1,54.2,379.4a25.035,25.035,0,0,1,1.4,4.739,24.718,24.718,0,0,1,.439,4.921,8.041,8.041,0,0,1-.73,3.99,2.413,2.413,0,0,1-2.407,1.209c-.679-.13-.885-.516-.866-.511a2.307,2.307,0,0,0,.89.325,2.238,2.238,0,0,0,2.09-1.2,8.085,8.085,0,0,0,.58-3.819,26.378,26.378,0,0,0-.469-4.831,26.757,26.757,0,0,0-1.335-4.664,9.023,9.023,0,0,0-1.888-3.382A1.742,1.742,0,0,0,49.6,376.1,1.468,1.468,0,0,0,49.161,376.913Z"
           transform="translate(-49.129 -375.424)"
           fill="#263238"
           id="path11605" />
      </g>
      <g
         transform="translate(47.532 88.177)"
         id="g11611">
        <path
           d="M98.747,381.612c.027-.012.149.176.307.551a6.126,6.126,0,0,1,.409,1.671,7.066,7.066,0,0,1-6.608,7.882,6.116,6.116,0,0,1-1.717-.111c-.4-.09-.6-.178-.6-.206a18.861,18.861,0,0,0,2.279-.021,7.06,7.06,0,0,0,6.3-7.518A18.97,18.97,0,0,0,98.747,381.612Z"
           transform="translate(-90.543 -381.611)"
           fill="#263238"
           id="path11609" />
      </g>
      <g
         transform="translate(40.238 48.902)"
         id="g11615">
        <path
           d="M94.727,341.177a23.57,23.57,0,0,0-5.952-1.549,23.5,23.5,0,0,0-6.127.531,4.917,4.917,0,0,1,1.723-.659,13.714,13.714,0,0,1,8.767.74A4.97,4.97,0,0,1,94.727,341.177Z"
           transform="translate(-82.647 -339.101)"
           fill="#263238"
           id="path11613" />
      </g>
      <g
         transform="translate(62.235 1.81)"
         id="g11619">
        <path
           d="M198.269,297.436a.99.99,0,0,1-.236-.073l-.674-.259-2.571-1.034-1.852-.757c-.685-.26-1.443-.5-2.249-.783-1.621-.538-3.437-1.243-5.523-1.772l-3.247-.911c-1.131-.31-2.335-.528-3.565-.812-2.455-.605-5.131-.979-7.934-1.434a115.385,115.385,0,0,0-18.434-.941,115.448,115.448,0,0,0-18.32,2.288c-2.763.659-5.4,1.227-7.81,2.011-1.207.373-2.39.678-3.5,1.07l-3.173,1.147c-2.042.679-3.8,1.517-5.378,2.171-.783.341-1.522.636-2.185.945l-1.792.891L107.34,300.4l-.653.307a.124.124,0,1,1-.023-.043l.631-.348,2.451-1.3,1.778-.93c.659-.322,1.394-.629,2.174-.982,1.572-.68,3.326-1.542,5.367-2.245l3.174-1.179c1.107-.4,2.292-.718,3.5-1.1,2.409-.8,5.058-1.389,7.831-2.062a112.945,112.945,0,0,1,18.4-2.335,112.977,112.977,0,0,1,18.513.982c2.814.469,5.5.859,7.96,1.485,1.233.293,2.439.521,3.572.842l3.251.944c2.086.551,3.9,1.282,5.516,1.845.8.3,1.56.549,2.24.821l1.841.8,2.54,1.118.655.3A.857.857,0,0,1,198.269,297.436Z"
           transform="translate(-106.457 -288.129)"
           fill="#fff"
           id="path11617" />
      </g>
      <g
         transform="translate(159.419 14.881)"
         id="g11623">
        <path
           d="M217.259,304.635a19.281,19.281,0,0,1-5.609-2.337,19.318,19.318,0,0,1,5.609,2.337Z"
           transform="translate(-211.648 -302.276)"
           fill="#fff"
           id="path11621" />
      </g>
      <g
         transform="translate(1.696 72.744)"
         id="g11627">
        <path
           d="M50.7,364.914c.032.079-.844.431-2.116,1.235a16.688,16.688,0,0,0-6.985,9.109c-.445,1.437-.558,2.375-.643,2.364a1.792,1.792,0,0,1,0-.668,10.336,10.336,0,0,1,.313-1.789,15.121,15.121,0,0,1,7.137-9.309,10.44,10.44,0,0,1,1.646-.768C50.457,364.947,50.684,364.883,50.7,364.914Z"
           transform="translate(-40.929 -364.907)"
           fill="#fff"
           id="path11625" />
      </g>
      <g
         transform="translate(45.632 163.282)"
         id="g11631">
        <path
           d="M111.068,464.187c-.03.022-.161-.225-.552-.522a2.837,2.837,0,0,0-2-.485,3.457,3.457,0,0,0-2.628,1.681,7.494,7.494,0,0,0-.91,4.1l-.422-.019a5.127,5.127,0,0,0-1.355-4.014,4.039,4.039,0,0,0-4.415-.916,3.144,3.144,0,0,0-1.882,2.319,3.067,3.067,0,0,0,.672,2.724l-.379.236a11.7,11.7,0,0,0-2.609-4.748,4.106,4.106,0,0,0-3.841-1.2,3.1,3.1,0,0,0-2.009,1.766,3.874,3.874,0,0,0-.2.987,1.667,1.667,0,0,1,.059-1.038,3.192,3.192,0,0,1,2.068-1.985,4.386,4.386,0,0,1,4.187,1.188,11.846,11.846,0,0,1,2.773,4.875L98,470.158l-.755-.794a3.52,3.52,0,0,1-.806-3.134,3.617,3.617,0,0,1,2.157-2.665,4.5,4.5,0,0,1,4.939,1.033,5.534,5.534,0,0,1,1.442,4.384l-.422-.019a7.746,7.746,0,0,1,1.04-4.29,3.838,3.838,0,0,1,1.365-1.3,3.784,3.784,0,0,1,1.535-.444,2.889,2.889,0,0,1,2.1.63A1.585,1.585,0,0,1,111.068,464.187Z"
           transform="translate(-88.486 -462.905)"
           fill="#263238"
           id="path11629" />
      </g>
    </g>
    <g
       transform="translate(217.612 140.139)"
       id="g11921">
      <g
         transform="translate(1.731 289.344)"
         id="g11673">
        <path
           d="M250.894,462.37l-1.594,6.691s-10.941,14.212-14.316,13.517c-2.212-.456.506-4.163,4.668-14.959l.873-4.459Z"
           transform="translate(-234.195 -462.37)"
           fill="#455a64"
           id="path11635" />
        <g
           transform="translate(0.344 5.083)"
           id="g11639">
          <path
             d="M234.567,480.9a1.411,1.411,0,0,0,.584.56,2.026,2.026,0,0,0,2.094-.291,61.111,61.111,0,0,0,5.445-5.161c2.026-2.126,3.728-4.171,4.925-5.678l1.4-1.8.379-.492a.956.956,0,0,1,.142-.163.813.813,0,0,1-.11.187l-.349.514c-.309.442-.767,1.074-1.35,1.841a70.749,70.749,0,0,1-4.892,5.728,53.426,53.426,0,0,1-5.512,5.141,2.588,2.588,0,0,1-1.235.455,1.8,1.8,0,0,1-.972-.213,1.227,1.227,0,0,1-.46-.427A.609.609,0,0,1,234.567,480.9Z"
             transform="translate(-234.567 -467.872)"
             fill="#263238"
             id="path11637" />
        </g>
        <g
           transform="translate(1.893 13.433)"
           id="g11643">
          <path
             d="M236.244,477.017a1.778,1.778,0,0,1,.9-.1,4.693,4.693,0,0,1,2.062.716,3.773,3.773,0,0,1,1.5,1.584,1.964,1.964,0,0,1,.237.874c-.034.009-.1-.332-.361-.811A4.017,4.017,0,0,0,239.1,477.8a5.2,5.2,0,0,0-1.973-.746C236.59,476.981,236.25,477.051,236.244,477.017Z"
             transform="translate(-236.244 -476.909)"
             fill="#263238"
             id="path11641" />
        </g>
        <g
           transform="translate(11.847 3.469)"
           id="g11647">
          <path
             d="M247.424,472.861a1.059,1.059,0,0,1-.131-.32,5.775,5.775,0,0,1-.215-.917,4.977,4.977,0,0,1,.51-3.043,4.705,4.705,0,0,1,2.212-2.149,3.684,3.684,0,0,1,.9-.279,1.007,1.007,0,0,1,.346-.021,7.625,7.625,0,0,0-1.189.426,4.83,4.83,0,0,0-2.1,2.113,5.146,5.146,0,0,0-.548,2.936C247.3,472.383,247.459,472.852,247.424,472.861Z"
             transform="translate(-247.018 -466.124)"
             fill="#263238"
             id="path11645" />
        </g>
        <g
           transform="translate(15.024 1.135)"
           id="g11651">
          <path
             d="M251.435,463.6c.048.018-.2.952-.4,2.134a7.306,7.306,0,0,1-.57,2.1c-.043-.017.176-.954.376-2.141A7.1,7.1,0,0,1,251.435,463.6Z"
             transform="translate(-250.456 -463.599)"
             fill="#263238"
             id="path11649" />
        </g>
        <g
           transform="translate(5.263 6.113)"
           id="g11655">
          <path
             d="M239.892,469.067a3.29,3.29,0,0,1,2.671.616c-.03.051-.577-.242-1.313-.407S239.9,469.126,239.892,469.067Z"
             transform="translate(-239.892 -468.986)"
             fill="#263238"
             id="path11653" />
        </g>
        <g
           transform="translate(5.039 7.226)"
           id="g11659">
          <path
             d="M239.649,470.3a2.223,2.223,0,0,1,2.219.528c-.033.048-.47-.237-1.083-.378S239.657,470.363,239.649,470.3Z"
             transform="translate(-239.649 -470.192)"
             fill="#263238"
             id="path11657" />
        </g>
        <g
           transform="translate(4.164 8.569)"
           id="g11663">
          <path
             d="M238.7,471.854a1.793,1.793,0,0,1,2.262.514,5.185,5.185,0,0,0-1.08-.479A5.108,5.108,0,0,0,238.7,471.854Z"
             transform="translate(-238.702 -471.645)"
             fill="#263238"
             id="path11661" />
        </g>
        <g
           transform="translate(6.016 2.959)"
           id="g11667">
          <path
             d="M240.707,468.327c-.007-.032.505-.137,1.285-.439a9.81,9.81,0,0,0,1.32-.635c.238-.138.484-.293.727-.465.223-.165.467-.408.459-.666s-.334-.4-.584-.337a1.589,1.589,0,0,0-.676.451c-.4.38-.746.742-1.025,1.054-.559.625-.87,1.044-.894,1.025A1.224,1.224,0,0,1,241.5,468c.132-.2.334-.472.6-.8a14.065,14.065,0,0,1,1.006-1.094,1.734,1.734,0,0,1,.759-.508.638.638,0,0,1,.824.515,1.1,1.1,0,0,1-.543.833,8.716,8.716,0,0,1-2.111,1.074,7.545,7.545,0,0,1-.968.263A1.175,1.175,0,0,1,240.707,468.327Z"
             transform="translate(-240.707 -465.573)"
             fill="#263238"
             id="path11665" />
        </g>
        <g
           transform="translate(4.578 1.975)"
           id="g11671">
          <path
             d="M241.163,468.108a12.363,12.363,0,0,1-.2-1.222,5.12,5.12,0,0,0-.372-1.266,2.724,2.724,0,0,0-.408-.644c-.167-.189-.421-.352-.625-.232s-.234.419-.2.667a3.025,3.025,0,0,0,.213.734,4.211,4.211,0,0,0,.715,1.1c.507.563.9.832.881.861a1.015,1.015,0,0,1-.289-.171,5.1,5.1,0,0,1-.695-.6,4.024,4.024,0,0,1-.778-1.123,3.087,3.087,0,0,1-.239-.784.837.837,0,0,1,.3-.863.726.726,0,0,1,.864.274,2.817,2.817,0,0,1,.431.7,4.775,4.775,0,0,1,.345,1.319c.049.383.064.694.072.908A1.083,1.083,0,0,1,241.163,468.108Z"
             transform="translate(-239.15 -464.508)"
             fill="#263238"
             id="path11669" />
        </g>
      </g>
      <g
         transform="translate(53.753 283.325)"
         id="g11739">
        <g
           transform="translate(0.231)"
           id="g11677">
          <path
             d="M307.629,464.98l.052-8.923-16.714-.2-.213,13.054,1.036.078c4.609.312,23.456,1.261,26.551.364C321.791,468.35,307.629,464.98,307.629,464.98Z"
             transform="translate(-290.753 -455.855)"
             fill="#455a64"
             id="path11675" />
        </g>
        <g
           transform="translate(0 12.66)"
           id="g11681">
          <path
             d="M290.5,469.564a1.56,1.56,0,0,0,.287.035l.825.06,3.036.17c2.564.125,6.11.249,10.027.3s7.467.022,10.033-.033l3.04-.088.826-.038a1.616,1.616,0,0,0,.287-.027,1.456,1.456,0,0,0-.288-.014h-.827l-3.04.023c-2.567.019-6.112.026-10.029-.026s-7.458-.156-10.024-.244l-3.038-.105-.827-.022A1.66,1.66,0,0,0,290.5,469.564Z"
             transform="translate(-290.503 -469.558)"
             fill="#263238"
             id="path11679" />
        </g>
        <g
           transform="translate(22.484 10.815)"
           id="g11685">
          <path
             d="M314.867,470.159a4.411,4.411,0,0,1,1.636-2.592,2.7,2.7,0,0,0-1.636,2.592Z"
             transform="translate(-314.839 -467.561)"
             fill="#263238"
             id="path11683" />
        </g>
        <g
           transform="translate(17.603 9.466)"
           id="g11689">
          <path
             d="M309.564,467.483c.047.031.286-.254.536-.635s.412-.715.365-.746-.286.254-.535.635S309.518,467.453,309.564,467.483Z"
             transform="translate(-309.557 -466.101)"
             fill="#263238"
             id="path11687" />
        </g>
        <g
           transform="translate(16.263 9.185)"
           id="g11693">
          <path
             d="M308.11,466.727c.037.042.3-.131.595-.386s.5-.5.46-.538-.3.13-.594.385S308.074,466.685,308.11,466.727Z"
             transform="translate(-308.106 -465.797)"
             fill="#263238"
             id="path11691" />
        </g>
        <g
           transform="translate(15.432 8.444)"
           id="g11697">
          <path
             d="M307.206,465.077a3.8,3.8,0,1,0,.876-.08A1.971,1.971,0,0,0,307.206,465.077Z"
             transform="translate(-307.206 -464.995)"
             fill="#263238"
             id="path11695" />
        </g>
        <g
           transform="translate(15.152 7.394)"
           id="g11701">
          <path
             d="M306.9,463.875a2.455,2.455,0,0,0,1.975.175,81.005,81.005,0,0,1-1.975-.175Z"
             transform="translate(-306.903 -463.859)"
             fill="#263238"
             id="path11699" />
        </g>
        <g
           transform="translate(18.197 7.921)"
           id="g11705">
          <path
             d="M310.2,465.9a3.086,3.086,0,0,0,1.074.007,6.356,6.356,0,0,0,1.147-.237,3.2,3.2,0,0,0,.658-.261.582.582,0,0,0,.27-.331.422.422,0,0,0-.157-.431,1.969,1.969,0,0,0-2.443.546,1.9,1.9,0,0,0-.359.711.6.6,0,0,0-.031.29,3.007,3.007,0,0,1,.5-.91,1.935,1.935,0,0,1,.925-.585,1.669,1.669,0,0,1,1.279.1c.169.128.1.329-.091.439a3.244,3.244,0,0,1-.607.25,7.457,7.457,0,0,1-1.111.274C310.609,465.876,310.2,465.872,310.2,465.9Z"
             transform="translate(-310.199 -464.429)"
             fill="#263238"
             id="path11703" />
        </g>
        <g
           transform="translate(17.094 7.362)"
           id="g11709">
          <path
             d="M310.385,465.916a1.056,1.056,0,0,0,.134-.745,1.766,1.766,0,0,0-.284-.788,1.08,1.08,0,0,0-.887-.559.427.427,0,0,0-.337.491,1.18,1.18,0,0,0,.176.482,3.24,3.24,0,0,0,.5.657,1.566,1.566,0,0,0,.609.443c.019-.026-.212-.2-.5-.54a3.729,3.729,0,0,1-.441-.65c-.145-.228-.241-.637.03-.683.269-.023.54.249.7.465a1.751,1.751,0,0,1,.295.7A3.832,3.832,0,0,1,310.385,465.916Z"
             transform="translate(-309.005 -463.824)"
             fill="#263238"
             id="path11707" />
        </g>
        <g
           transform="translate(0.4 7.997)"
           id="g11713">
          <path
             d="M290.936,464.612c0,.038.479-.04,1.233.059a5.235,5.235,0,0,1,4.333,3.545c.246.72.265,1.2.3,1.2a.935.935,0,0,0,0-.337,4.366,4.366,0,0,0-.17-.9,5.08,5.08,0,0,0-4.454-3.644,4.375,4.375,0,0,0-.919.012A.97.97,0,0,0,290.936,464.612Z"
             transform="translate(-290.936 -464.511)"
             fill="#263238"
             id="path11711" />
        </g>
        <g
           transform="translate(1.999 1.165)"
           id="g11717">
          <path
             d="M292.888,457.116a58.065,58.065,0,0,0-.174,6.867,58.078,58.078,0,0,0,.174-6.867Z"
             transform="translate(-292.667 -457.116)"
             fill="#263238"
             id="path11715" />
        </g>
        <g
           transform="translate(8.417 11.375)"
           id="g11721">
          <path
             d="M299.613,468.185a13.729,13.729,0,0,0,4.884.109c0-.059-1.1-.006-2.442-.038S299.62,468.126,299.613,468.185Z"
             transform="translate(-299.613 -468.167)"
             fill="#263238"
             id="path11719" />
        </g>
        <g
           transform="translate(5.133 11.34)"
           id="g11725">
          <path
             d="M296.067,468.135c-.042.041.086.233.195.484s.166.475.224.472.09-.263-.038-.553S296.1,468.1,296.067,468.135Z"
             transform="translate(-296.059 -468.129)"
             fill="#263238"
             id="path11723" />
        </g>
        <g
           transform="translate(3.918 9.786)"
           id="g11729">
          <path
             d="M294.752,466.455c-.041.039.066.214.236.392s.342.29.383.251-.066-.214-.237-.392S294.793,466.417,294.752,466.455Z"
             transform="translate(-294.744 -466.448)"
             fill="#263238"
             id="path11727" />
        </g>
        <g
           transform="translate(2.169 8.978)"
           id="g11733">
          <path
             d="M292.851,465.664c.01.056.233.057.477.148s.42.222.465.185-.092-.27-.4-.376S292.834,465.613,292.851,465.664Z"
             transform="translate(-292.85 -465.572)"
             fill="#263238"
             id="path11731" />
        </g>
        <g
           transform="translate(0.913 8.685)"
           id="g11737">
          <path
             d="M291.494,465.293c-.021.052.074.139.212.195s.266.058.287.006-.074-.139-.213-.195S291.515,465.241,291.494,465.293Z"
             transform="translate(-291.491 -465.256)"
             fill="#263238"
             id="path11735" />
        </g>
      </g>
      <g
         transform="translate(0 121.562)"
         id="g11767">
        <path
           d="M314.457,280.764l-6.411,167.507-26.027.547,4.322-145.14L257.066,449.926H232.321L264.2,281.1Z"
           transform="translate(-232.321 -280.764)"
           fill="#263238"
           id="path11741" />
        <g
           transform="translate(53.585 6.094)"
           id="g11745">
          <path
             d="M296.753,287.36a16.579,16.579,0,0,1-.3,2.761c-.242,1.7-.609,4.034-1.042,6.611a27.734,27.734,0,0,1-.744,3.637,5.148,5.148,0,0,1-1.7,2.556,4.009,4.009,0,0,1-1.889.844,1.519,1.519,0,0,1-.757-.012,4.676,4.676,0,0,0,3.943-3.517,32.357,32.357,0,0,0,.694-3.584c.433-2.578.851-4.907,1.175-6.589A16.71,16.71,0,0,1,296.753,287.36Z"
             transform="translate(-290.321 -287.36)"
             fill="#455a64"
             id="path11743" />
        </g>
        <g
           transform="translate(54.243 6.463)"
           id="g11749">
          <path
             d="M291.392,288.194c.057.042-.156.31-.033.753a.88.88,0,0,0,.435.559.788.788,0,0,0,1.028-.9.883.883,0,0,0-.5-.5c-.422-.179-.717,0-.751-.064-.054-.025.241-.382.849-.246a1.155,1.155,0,0,1,.8.666,1.179,1.179,0,0,1-1.621,1.425,1.153,1.153,0,0,1-.558-.877C290.983,288.384,291.375,288.138,291.392,288.194Z"
             transform="translate(-291.034 -287.76)"
             fill="#455a64"
             id="path11747" />
        </g>
        <g
           transform="translate(40.247 4.635)"
           id="g11753">
          <path
             d="M276.26,290.433a4.906,4.906,0,0,1,.5-4.649c.123.055-.253,1.041-.382,2.31S276.392,290.4,276.26,290.433Z"
             transform="translate(-275.884 -285.781)"
             fill="#455a64"
             id="path11751" />
        </g>
        <g
           transform="translate(43.361 4.239)"
           id="g11757">
          <path
             d="M279.647,290.2a5.7,5.7,0,0,1,.339-4.847,21.183,21.183,0,0,1-.255,2.417A21.249,21.249,0,0,1,279.647,290.2Z"
             transform="translate(-279.255 -285.352)"
             fill="#455a64"
             id="path11755" />
        </g>
        <g
           transform="translate(70.613 4.737)"
           id="g11761">
          <path
             d="M308.794,290.924a185.195,185.195,0,0,0,.26-5.032,6.907,6.907,0,0,1-.26,5.032Z"
             transform="translate(-308.753 -285.892)"
             fill="#455a64"
             id="path11759" />
        </g>
        <g
           transform="translate(74.029 4.445)"
           id="g11765">
          <path
             d="M312.474,290.712c-.126-.053.281-1.147.37-2.554.106-1.406-.143-2.546-.013-2.581a5.409,5.409,0,0,1-.358,5.135Z"
             transform="translate(-312.45 -285.576)"
             fill="#455a64"
             id="path11763" />
        </g>
      </g>
      <g
         transform="translate(38.113)"
         id="g11821">
        <g
           transform="translate(5.153 9.81)"
           id="g11809">
          <path
             d="M281.759,201.867l16.069-1.283c.1-1.875-.034-9.134-.034-9.134s6.686-1.039,6.768-7.724-1.076-22.035-1.076-22.035h0a23.232,23.232,0,0,0-23.344,2.935l-.99.762Z"
             transform="translate(-279.152 -159.804)"
             fill="#ffbe9d"
             id="path11769" />
          <g
             transform="translate(9.938 29.073)"
             id="g11773">
            <path
               d="M298.624,193.749a15.544,15.544,0,0,1-8.715-2.477s2.06,4.812,8.731,4.209Z"
               transform="translate(-289.909 -191.272)"
               fill="#eb996e"
               id="path11771" />
          </g>
          <g
             transform="translate(8.549 6.687)"
             id="g11807">
            <g
               transform="translate(0.649 3.601)"
               id="g11799">
              <g
                 transform="translate(10.098)"
                 id="g11781">
                <g
                   transform="translate(0.531 1.214)"
                   id="g11777">
                  <path
                     d="M302.517,173.117a.955.955,0,0,1-.92.963.913.913,0,0,1-.984-.861.954.954,0,0,1,.919-.964A.914.914,0,0,1,302.517,173.117Z"
                     transform="translate(-300.612 -172.253)"
                     fill="#263238"
                     id="path11775" />
                </g>
                <path
                   d="M303.811,171.943c-.118.124-.842-.411-1.869-.408s-1.78.516-1.891.391c-.055-.055.066-.28.394-.519a2.618,2.618,0,0,1,1.514-.467,2.516,2.516,0,0,1,1.487.479C303.762,171.662,303.869,171.888,303.811,171.943Z"
                   transform="translate(-300.038 -170.94)"
                   fill="#263238"
                   id="path11779" />
              </g>
              <g
                 transform="translate(0 0.191)"
                 id="g11789">
                <g
                   transform="translate(0.252 1.263)"
                   id="g11785">
                  <path
                     d="M291.286,173.378a.954.954,0,0,1-.92.963.913.913,0,0,1-.984-.861.956.956,0,0,1,.919-.964A.914.914,0,0,1,291.286,173.378Z"
                     transform="translate(-289.381 -172.514)"
                     fill="#263238"
                     id="path11783" />
                </g>
                <path
                   d="M292.882,172.15c-.119.125-.844-.41-1.87-.407s-1.779.516-1.891.391c-.054-.056.065-.281.395-.519a2.616,2.616,0,0,1,1.514-.467,2.518,2.518,0,0,1,1.487.48C292.832,171.869,292.939,172.095,292.882,172.15Z"
                   transform="translate(-289.108 -171.147)"
                   fill="#263238"
                   id="path11787" />
              </g>
              <g
                 transform="translate(7.02 0.253)"
                 id="g11793">
                <path
                   d="M297.188,179.774a6.849,6.849,0,0,1,1.668-.3c.262-.027.51-.079.554-.258a1.34,1.34,0,0,0-.175-.778l-.776-2a34.377,34.377,0,0,1-1.742-5.225,34.3,34.3,0,0,1,2.159,5.072q.388,1.052.743,2.009a1.52,1.52,0,0,1,.136,1.029.657.657,0,0,1-.431.384,1.826,1.826,0,0,1-.445.062A6.708,6.708,0,0,1,297.188,179.774Z"
                   transform="translate(-296.707 -171.214)"
                   fill="#263238"
                   id="path11791" />
              </g>
              <g
                 transform="translate(4.311 9.523)"
                 id="g11797">
                <path
                   d="M293.942,181.248c.166-.009.169,1.106,1.123,1.9s2.141.669,2.15.825c.016.07-.265.216-.767.23a2.778,2.778,0,0,1-1.794-.625,2.422,2.422,0,0,1-.871-1.59C293.741,181.518,293.866,181.242,293.942,181.248Z"
                   transform="translate(-293.775 -181.248)"
                   fill="#263238"
                   id="path11795" />
              </g>
            </g>
            <path
               d="M293.094,167.813c-.1.279-1.127.147-2.333.292-1.207.121-2.179.474-2.339.224-.072-.12.1-.382.491-.653a4.087,4.087,0,0,1,3.56-.393C292.914,167.461,293.137,167.68,293.094,167.813Z"
               transform="translate(-288.406 -167.042)"
               fill="#263238"
               id="path11801" />
            <g
               transform="translate(10.644 0.567)"
               id="g11805">
              <path
                 d="M303.425,168.72c-.181.233-.888-.009-1.74-.02-.85-.042-1.572.157-1.737-.088-.073-.118.041-.352.356-.573a2.517,2.517,0,0,1,2.8.087C303.405,168.366,303.5,168.607,303.425,168.72Z"
                 transform="translate(-299.927 -167.656)"
                 fill="#263238"
                 id="path11803" />
            </g>
          </g>
        </g>
        <g
           transform="translate(1.526 22.108)"
           id="g11817">
          <path
             d="M279.676,173.326c-.114-.049-4.593-1.358-4.447,3.212s4.7,3.48,4.708,3.349S279.676,173.326,279.676,173.326Z"
             transform="translate(-275.226 -173.115)"
             fill="#ffbe9d"
             id="path11811" />
          <g
             transform="translate(1.164 1.496)"
             id="g11815">
            <path
               d="M278.582,178.323c-.021-.014-.078.058-.211.125a.8.8,0,0,1-.595.031,1.972,1.972,0,0,1-.968-1.739,2.632,2.632,0,0,1,.187-1.147.921.921,0,0,1,.579-.63.4.4,0,0,1,.477.2c.066.126.04.218.064.224s.1-.079.053-.267a.5.5,0,0,0-.189-.281.6.6,0,0,0-.444-.1,1.121,1.121,0,0,0-.808.735,2.7,2.7,0,0,0-.236,1.282,2.069,2.069,0,0,0,1.224,1.936.85.85,0,0,0,.724-.144C278.578,178.434,278.6,178.332,278.582,178.323Z"
               transform="translate(-276.486 -174.735)"
               fill="#eb996e"
               id="path11813" />
          </g>
        </g>
        <path
           d="M305.621,155.109A7.067,7.067,0,0,0,294.642,153a6.921,6.921,0,0,0-11.372-1.475c-1.281,1.45-1.945,3.424-3.446,4.646-1.3,1.058-3.061,1.409-4.367,2.458a5.045,5.045,0,0,0,1.8,8.8,5.42,5.42,0,0,0,2.667,7.361l.666-.276a9.513,9.513,0,0,0,1.384-10.494c.082,0,.159-.008.239-.011a5.342,5.342,0,0,0,6.956-1.59,5.933,5.933,0,0,0,6.369.268,2.46,2.46,0,0,1,.96-.436,2.265,2.265,0,0,1,1.2.358,5.621,5.621,0,0,0,3.235.653,3.13,3.13,0,0,0,2.43-1.739c.025,0,.05,0,.076-.009a3.6,3.6,0,0,0,2.676-2.592A5.344,5.344,0,0,0,305.621,155.109Z"
           transform="translate(-273.575 -149.186)"
           fill="#263238"
           id="path11819" />
      </g>
      <g
         transform="translate(14.323 42.108)"
         id="g11899">
        <g
           transform="translate(0.015)"
           id="g11825">
          <path
             d="M313.808,238.814l.584-30.124c-5.345-5.254-8.2-6.825-15.642-7.7-.786-.093-1.455-.163-2.026-.225l-.637-4.961-18.26-1.035.913,5.889h0c-2.648.112-4.842.928-7.094,1.359-7.094,1.359-12.2,6.525-13.618,11.3-1.168,3.928-8.663,33.04-8.663,33.04l-1.524,8.788,16.743-6.078-.012,6.327.041,23.244H315.47C315.6,273.089,313.808,238.814,313.808,238.814Z"
             transform="translate(-247.84 -194.764)"
             fill="#507fe8"
             id="path11823" />
        </g>
        <g
           transform="translate(0.015)"
           opacity="0.2"
           id="g11829">
          <path
             d="M313.808,238.814l.584-30.124c-5.345-5.254-8.2-6.825-15.642-7.7-.786-.093-1.455-.163-2.026-.225l-.637-4.961-18.26-1.035.913,5.889h0c-2.648.112-4.842.928-7.094,1.359-7.094,1.359-12.2,6.525-13.618,11.3-1.168,3.928-8.663,33.04-8.663,33.04l-1.524,8.788,16.743-6.078-.012,6.327.041,23.244H315.47C315.6,273.089,313.808,238.814,313.808,238.814Z"
             transform="translate(-247.84 -194.764)"
             id="path11827"
             style="fill:#28a9e0;fill-opacity:1" />
        </g>
        <g
           transform="translate(0 48.444)"
           id="g11833">
          <path
             d="M255.489,250.761l25.069-3.562,4.764,8.534-23.3,10.506a10.055,10.055,0,0,1-4.133.889h0a10.059,10.059,0,0,1-9.306-6.241l-.755-1.839Z"
             transform="translate(-247.824 -247.199)"
             fill="#507fe8"
             id="path11831" />
        </g>
        <g
           transform="translate(0 48.444)"
           opacity="0.2"
           id="g11837">
          <path
             d="M255.489,250.761l25.069-3.562,4.764,8.534-23.3,10.506a10.055,10.055,0,0,1-4.133.889h0a10.059,10.059,0,0,1-9.306-6.241l-.755-1.839Z"
             transform="translate(-247.824 -247.199)"
             id="path11835"
             style="fill:#28a9e0;fill-opacity:1" />
        </g>
        <g
           transform="translate(55.029 8.06)"
           id="g11841">
          <path
             d="M311.244,203.488s7.082,2.413,10.057,9.226c1.941,4.446,4.794,25.841,4.794,25.841l3.6,6.938a11.7,11.7,0,0,1,1.314,5.385v1.058a11.7,11.7,0,0,1-2.624,7.383h0a11.71,11.71,0,0,1-8.041,4.271c-3.59.322-7.934.462-8.862-.6-1.637-1.871-4.093-6.9-4.093-6.9l10.473-5.563-4.509-8.352Z"
             transform="translate(-307.387 -203.488)"
             fill="#507fe8"
             id="path11839" />
        </g>
        <g
           transform="translate(55.029 8.06)"
           opacity="0.2"
           id="g11845">
          <path
             d="M311.244,203.488s7.082,2.413,10.057,9.226c1.941,4.446,4.794,25.841,4.794,25.841l3.6,6.938a11.7,11.7,0,0,1,1.314,5.385v1.058a11.7,11.7,0,0,1-2.624,7.383h0a11.71,11.71,0,0,1-8.041,4.271c-3.59.322-7.934.462-8.862-.6-1.637-1.871-4.093-6.9-4.093-6.9l10.473-5.563-4.509-8.352Z"
             transform="translate(-307.387 -203.488)"
             id="path11843"
             style="fill:#28a9e0;fill-opacity:1" />
        </g>
        <g
           transform="translate(6.946 48.201)"
           id="g11849">
          <path
             d="M264.339,265.431a2.03,2.03,0,0,1,.4-.227l1.2-.583,4.5-2.1,15.359-7.011-.1.314-2.942-5.258c-.625-1.122-1.242-2.227-1.826-3.275l.222.115-18.363,1.8-5.458.488-1.475.111a2.447,2.447,0,0,1-.515.01,2.293,2.293,0,0,1,.506-.1l1.466-.19,5.444-.626,18.347-1.952.149-.017.074.132c.585,1.048,1.2,2.152,1.829,3.273,1.005,1.8,1.986,3.563,2.932,5.262l.12.215-.224.1-15.425,6.867-4.553,1.98-1.232.513A1.946,1.946,0,0,1,264.339,265.431Z"
             transform="translate(-255.342 -246.936)"
             fill="#263238"
             id="path11847" />
        </g>
        <g
           transform="translate(20.163 29.511)"
           id="g11853">
          <path
             d="M269.878,246.725c-.127,0-.23-4.482-.23-10.008s.1-10.009.23-10.009.229,4.48.229,10.009S270,246.725,269.878,246.725Z"
             transform="translate(-269.648 -226.707)"
             fill="#263238"
             id="path11851" />
        </g>
        <g
           transform="translate(57.433 56.073)"
           id="g11857">
          <path
             d="M316.093,255.6a2.3,2.3,0,0,1,.762-.12,6.973,6.973,0,0,1,2.114.128,2.508,2.508,0,0,1,1.327.75,3.465,3.465,0,0,1,.693,1.6,3.709,3.709,0,0,1-.172,1.91,3.561,3.561,0,0,1-1.268,1.627,9.462,9.462,0,0,1-3.631,1.294,16.574,16.574,0,0,1-3.108.3,5.632,5.632,0,0,1-2.821-.492,14.818,14.818,0,0,0,2.814.167,18.792,18.792,0,0,0,3.03-.392,9.569,9.569,0,0,0,3.445-1.252A3.268,3.268,0,0,0,320,256.6a2.228,2.228,0,0,0-1.119-.68,8.408,8.408,0,0,0-2.024-.261A2.783,2.783,0,0,1,316.093,255.6Z"
             transform="translate(-309.989 -255.457)"
             fill="#263238"
             id="path11855" />
        </g>
        <g
           transform="translate(57.426 63.476)"
           id="g11861">
          <path
             d="M320.25,268.332a5.315,5.315,0,0,1-1.8.213,11.434,11.434,0,0,1-4.33-.719,9.345,9.345,0,0,1-2.155-1.147,5.179,5.179,0,0,1-1.332-1.5,3.961,3.961,0,0,1-.642-1.7c.074-.031.31.628.916,1.53a5.4,5.4,0,0,0,1.309,1.339,10.23,10.23,0,0,0,2.072,1.061,13.544,13.544,0,0,0,4.169.821A10.889,10.889,0,0,1,320.25,268.332Z"
             transform="translate(-309.981 -263.47)"
             fill="#263238"
             id="path11859" />
        </g>
        <g
           transform="translate(63.478 46.62)"
           id="g11865">
          <path
             d="M325.756,245.229a8.737,8.737,0,0,1-1.237,1.486c-.806.883-1.94,2.082-3.212,3.388s-2.443,2.47-3.307,3.3a8.174,8.174,0,0,1-1.465,1.272,8.187,8.187,0,0,1,1.233-1.5c.8-.884,1.937-2.085,3.21-3.391A44.309,44.309,0,0,1,325.756,245.229Z"
             transform="translate(-316.532 -245.225)"
             fill="#263238"
             id="path11863" />
        </g>
        <g
           transform="translate(61.056 30.506)"
           id="g11869">
          <path
             d="M314.14,239.228a35.93,35.93,0,0,1-.229-5.723,35.913,35.913,0,0,1,.229-5.722,35.9,35.9,0,0,1,.229,5.722A35.921,35.921,0,0,1,314.14,239.228Z"
             transform="translate(-313.911 -227.784)"
             fill="#263238"
             id="path11867" />
        </g>
        <g
           transform="translate(14.635 11.699)"
           id="g11873">
          <path
             d="M314.051,207.667c0,.133-11.281.241-25.191.241s-25.194-.108-25.194-.241,11.278-.24,25.194-.24S314.051,207.535,314.051,207.667Z"
             transform="translate(-263.665 -207.427)"
             fill="#fafafa"
             id="path11871" />
        </g>
        <g
           transform="translate(31.018 5.874)"
           id="g11877">
          <path
             d="M298.774,201.417a78.457,78.457,0,0,1-8.689.191,78.436,78.436,0,0,1-8.687-.29,78.863,78.863,0,0,1,8.69-.19A78.589,78.589,0,0,1,298.774,201.417Z"
             transform="translate(-281.398 -201.122)"
             fill="#263238"
             id="path11875" />
        </g>
        <g
           transform="translate(9.31 21.878)"
           id="g11881">
          <path
             d="M319.093,218.685c0,.133-13.7.241-30.6.241s-30.6-.108-30.6-.241,13.7-.24,30.6-.24S319.093,218.552,319.093,218.685Z"
             transform="translate(-257.901 -218.445)"
             fill="#fafafa"
             id="path11879" />
        </g>
        <g
           transform="translate(6.257 32.343)"
           id="g11885">
          <path
             d="M320.731,230.013c0,.133-14.806.24-33.066.24s-33.068-.107-33.068-.24,14.8-.241,33.068-.241S320.731,229.88,320.731,230.013Z"
             transform="translate(-254.597 -229.772)"
             fill="#fafafa"
             id="path11883" />
        </g>
        <g
           transform="translate(3.786 42.518)"
           id="g11889">
          <path
             d="M321.713,241.026c0,.132-15.625.24-34.894.24s-34.9-.108-34.9-.24,15.621-.241,34.9-.241S321.713,240.893,321.713,241.026Z"
             transform="translate(-251.922 -240.785)"
             fill="#fafafa"
             id="path11887" />
        </g>
        <g
           transform="translate(0.734 59.088)"
           id="g11893">
          <path
             d="M326.184,258.961c0,.132-17.365.24-38.781.24s-38.785-.108-38.785-.24,17.362-.241,38.785-.241S326.184,258.828,326.184,258.961Z"
             transform="translate(-248.618 -258.72)"
             fill="#fafafa"
             id="path11891" />
        </g>
        <g
           transform="translate(15.996 70.715)"
           id="g11897">
          <path
             d="M316.3,271.547c0,.133-11.454.24-25.58.24s-25.582-.107-25.582-.24,11.451-.241,25.582-.241S316.3,271.414,316.3,271.547Z"
             transform="translate(-265.138 -271.306)"
             fill="#fafafa"
             id="path11895" />
        </g>
      </g>
      <g
         transform="translate(46.029 82.005)"
         id="g11919">
        <g
           transform="translate(1.223 1.533)"
           id="g11903">
          <path
             d="M305.853,242.518l-.544-.408a12.518,12.518,0,0,0-9.864-2.28h0a17.162,17.162,0,0,0-7.682,3.607l-4.3,3.536,4.569,8.183,3.108-4.351s2.9,3.937,3.418,3.523a6.69,6.69,0,0,0,1.139-1.657l-2.071-2.9L298.6,250.8l7.252-3.314-3.108-3.937,3.108,1.036Z"
             transform="translate(-283.467 -239.606)"
             fill="#ffbe9d"
             id="path11901" />
        </g>
        <path
           d="M298.1,241.641l-15.953,19.321,1.223,1.325,25.89-3.947,12.839-19.32-1.191-1.073Z"
           transform="translate(-282.143 -237.947)"
           fill="#263238"
           id="path11905" />
        <g
           transform="translate(8.159 8.793)"
           id="g11909">
          <path
             d="M315.691,247.465h0a2.462,2.462,0,0,0-2.3,1.572,5.308,5.308,0,0,1-1.569,2.506c-1.15.628-3.137,1.129-4.183.617s-5.229-4.278-5.962-3.859-1.36,1.36-.627,2.2,4.6,3.347,3.87,4.184-8.89-2.846-10.146-2.521-1.987,1.1-1.255,1.6,6.275,2.6,6.589,3.328c0,0-8.368-2.2-8.682-1.674s-.836,1.36,0,1.674,8.054,2.2,8.682,2.509a15.182,15.182,0,0,0,3.225.941,34.5,34.5,0,0,1,3.37,1.069,7.387,7.387,0,0,0,5.2-.139l.847-.346a3.32,3.32,0,0,0,2.062-3.275L314.646,255l.913-2.354Z"
             transform="translate(-290.974 -247.465)"
             fill="#ffbe9d"
             id="path11907" />
        </g>
        <g
           transform="translate(1.323 1.241)"
           id="g11913">
          <path
             d="M322.252,239.3a2,2,0,0,1-.478.117l-1.384.246-5.1.819-7.576,1.157-4.47.676a8.548,8.548,0,0,0-4.333,1.755,29.1,29.1,0,0,0-3.157,3.625l-2.832,3.532-4.815,5.963-3.278,3.995-.909,1.073a2.078,2.078,0,0,1-.342.354,1.984,1.984,0,0,1,.269-.412l.843-1.125,3.163-4.086,4.739-6.024,2.811-3.549a28.487,28.487,0,0,1,3.212-3.7,8.94,8.94,0,0,1,4.554-1.848l4.484-.651,7.591-1.06,5.124-.675,1.4-.16A1.977,1.977,0,0,1,322.252,239.3Z"
             transform="translate(-283.575 -239.291)"
             fill="#455a64"
             id="path11911" />
        </g>
        <g
           transform="translate(27.016 5.483)"
           id="g11917">
          <path
             d="M312.259,243.882a2.186,2.186,0,0,0-.718.582.748.748,0,0,0-.03.868.8.8,0,0,0,1.067.018,1.043,1.043,0,0,0,.415-.619.732.732,0,0,0-.222-.692.569.569,0,0,0-.7-.028"
             transform="translate(-311.385 -243.882)"
             fill="#fafafa"
             id="path11915" />
        </g>
      </g>
    </g>
    <g
       transform="translate(170.328 142.233)"
       id="g11929">
      <path
         d="M226.769,193.4l-4.69-8.264a22.148,22.148,0,1,0-5.3,5.9l-.007.01Z"
         transform="translate(-181.141 -151.453)"
         fill="#507fe8"
         id="path11923"
         style="fill:#e8505b;fill-opacity:1" />
      <g
         transform="translate(14.405 16.143)"
         id="g11927">
        <path
           d="M196.733,172.194c0-2,1.2-3.268,2.907-3.268s2.89,1.253,2.89,3.268-1.186,3.268-2.89,3.268S196.733,174.191,196.733,172.194Zm4.126,0c0-1.269-.484-1.879-1.22-1.879-.718,0-1.22.626-1.22,1.879s.5,1.879,1.22,1.879C200.375,174.073,200.859,173.463,200.859,172.194Zm5.747-3.132h1.988l-7.985,11.852H198.62Zm-1.921,8.72c0-2,1.2-3.268,2.89-3.268,1.7,0,2.907,1.269,2.907,3.268s-1.2,3.267-2.907,3.267C205.888,181.048,204.685,179.779,204.685,177.781Zm4.109,0c0-1.254-.485-1.88-1.219-1.88-.718,0-1.22.61-1.22,1.88s.5,1.879,1.22,1.879C208.309,179.661,208.794,179.034,208.794,177.781Z"
           transform="translate(-196.733 -168.926)"
           fill="#fff"
           id="path11925" />
      </g>
    </g>
  </g>
  <g
     id="g14009"
     transform="translate(-73.557185,-17.307573)">
    <rect
       style="fill:#fafafa;stroke-width:0.85829389"
       y="38.679684"
       x="473.63184"
       id="rect32755-0"
       height="61.795444"
       width="99.844475" />
    <path
       style="fill:#ebebeb;stroke-width:0.85829389"
       inkscape:connector-curvature="0"
       id="path32757-1"
       d="m 549.37113,83.359031 c -6.923,-2.625521 -14.88711,4.634787 -21.67364,1.674531 -3.94815,-1.722596 -5.74027,-6.190015 -7.67486,-10.042038 -1.93459,-3.852023 -5.26907,-7.910895 -9.55453,-7.467157 -4.32237,0.450604 -7.81734,5.454457 -11.99294,4.248555 -2.63067,-0.760449 -3.94815,-3.678648 -4.60475,-6.336784 -0.65659,-2.658136 -1.11578,-5.596935 -3.12418,-7.462007 -2.00841,-1.865073 -6.18745,-1.365546 -6.5033,1.355246 v 32.763652 h 78.08071 c 0,0 -10.55701,-7.825065 -12.95251,-8.733998 z" />
    <path
       style="fill:#e0e0e0;stroke-width:0.85829389"
       inkscape:connector-curvature="0"
       id="path32761-0"
       d="m 564.40758,92.096464 c 0,0.07038 -18.92538,0.127886 -42.26582,0.127886 -23.34045,0 -42.26926,-0.05751 -42.26926,-0.127886 0,-0.07038 18.92109,-0.127028 42.26926,-0.127028 23.34817,0 42.26582,0.05751 42.26582,0.127028 z" />
    <path
       style="fill:#e0e0e0;stroke-width:0.85829389"
       inkscape:connector-curvature="0"
       id="path32765-4"
       d="m 564.40758,77.787844 c 0,0.07038 -18.92538,0.127028 -42.26582,0.127028 -23.34045,0 -42.26926,-0.05665 -42.26926,-0.127028 0,-0.07038 18.92109,-0.127027 42.26926,-0.127027 23.34817,0 42.26582,0.05665 42.26582,0.127027 z" />
    <path
       style="fill:#e0e0e0;stroke-width:0.85829389"
       inkscape:connector-curvature="0"
       id="path32769-9"
       d="m 564.40758,63.478376 c 0,0.07038 -18.92538,0.127028 -42.26582,0.127028 -23.34045,0 -42.26926,-0.05665 -42.26926,-0.127028 0,-0.07038 18.92109,-0.127027 42.26926,-0.127027 23.34817,0 42.26582,0.05665 42.26582,0.127027 z" />
    <path
       style="fill:#e0e0e0;stroke-width:0.85829389"
       inkscape:connector-curvature="0"
       id="path32773-3"
       d="m 564.40758,49.879566 c 0,0.07038 -18.92538,0.127028 -42.26582,0.127028 -23.34045,0 -42.26926,-0.05665 -42.26926,-0.127028 0,-0.07038 18.92109,-0.127027 42.26926,-0.127027 23.34817,0 42.26582,0.05665 42.26582,0.127027 z" />
  </g>
</svg>
