<?xml version="1.0" encoding="UTF-8" standalone="no"?>
<svg
   xmlns:dc="http://purl.org/dc/elements/1.1/"
   xmlns:cc="http://creativecommons.org/ns#"
   xmlns:rdf="http://www.w3.org/1999/02/22-rdf-syntax-ns#"
   xmlns:svg="http://www.w3.org/2000/svg"
   xmlns="http://www.w3.org/2000/svg"
   xmlns:sodipodi="http://sodipodi.sourceforge.net/DTD/sodipodi-0.dtd"
   xmlns:inkscape="http://www.inkscape.org/namespaces/inkscape"
   width="486.94699"
   height="463.16599"
   viewBox="0 0 486.94701 463.16597"
   version="1.1"
   id="svg4409"
   sodipodi:docname="solutions-hero-animation.svg"
   inkscape:version="0.92.4 (5da689c313, 2019-01-14)">
  <metadata
     id="metadata4415">
    <rdf:RDF>
      <cc:Work
         rdf:about="">
        <dc:format>image/svg+xml</dc:format>
        <dc:type
           rdf:resource="http://purl.org/dc/dcmitype/StillImage" />
        <dc:title></dc:title>
      </cc:Work>
    </rdf:RDF>
  </metadata>
  <defs
     id="defs4413" />
  <sodipodi:namedview
     pagecolor="#ffffff"
     bordercolor="#666666"
     borderopacity="1"
     objecttolerance="10"
     gridtolerance="10"
     guidetolerance="10"
     inkscape:pageopacity="0"
     inkscape:pageshadow="2"
     inkscape:window-width="1366"
     inkscape:window-height="705"
     id="namedview4411"
     showgrid="false"
     inkscape:zoom="0.70710678"
     inkscape:cx="201.46191"
     inkscape:cy="231.10163"
     inkscape:window-x="-8"
     inkscape:window-y="-8"
     inkscape:window-maximized="1"
     inkscape:current-layer="svg4409"
     showguides="false"
     fit-margin-top="0"
     fit-margin-left="0"
     fit-margin-right="0"
     fit-margin-bottom="0" />
  <path
     inkscape:connector-curvature="0"
     style="fill:#ebebeb;fill-opacity:1;stroke-width:2.691643"
     d="m 458.1542,96.769078 0.3763,7.912902 -7.0631,0.33328 -0.3651,-7.697685 a 33.510956,33.510956 0 0 1 -17.85372,-4.81825 l 3.47433,-8.800845 a 28.531416,28.531416 0 0 0 13.94179,4.366764 l -0.5591,-11.795627 c -7.9322,-1.532628 -16.81307,-3.73483 -17.29106,-13.836724 -0.35374,-7.485155 4.78255,-14.171508 15.87206,-15.971618 l -0.3706,-7.841855 7.0632,-0.335975 0.3647,7.70305 a 31.990177,31.990177 0 0 1 14.5419,3.626828 l -3.1207,8.859386 a 29.040137,29.040137 0 0 0 -10.9807,-3.163137 l 0.5702,12.010837 c 7.9262,1.464252 16.6658,3.672295 17.1378,13.632686 0.3592,7.339508 -4.7116,13.94924 -15.7382,15.815983 z m -8.5379,-30.887006 -0.478,-10.028756 c -3.7006,1.023894 -5.0863,3.143874 -4.9762,5.474639 0.116,2.472266 2.2983,3.713283 5.4542,4.554117 z m 12.9544,16.452411 c -0.1183,-2.475227 -2.23,-3.716482 -5.315,-4.636036 l 0.4608,9.747859 c 3.4939,-0.944119 4.9617,-2.85447 4.8545,-5.114489 z"
     id="path3885" />
  <path
     id="path8794"
     d="m 450.3767,205.15441 -1.0255,6.0636 -5.412,-0.91735 0.9984,-5.89852 a 26.014478,26.014478 0 0 1 -12.74245,-6.61195 l 4.09304,-6.09913 a 22.148873,22.148873 0 0 0 9.85021,5.62148 l 1.53,-9.0386 c -5.7619,-2.47646 -12.13244,-5.61788 -10.82153,-13.3585 0.9718,-5.73545 5.97493,-9.95558 14.68353,-9.48368 l 1.0181,-6.00877 5.4125,0.9153 -0.9995,5.90253 a 24.833901,24.833901 0 0 1 10.4279,5.15971 l -3.8344,6.2021 a 22.543792,22.543792 0 0 0 -7.8039,-4.21808 l -1.5572,9.20366 c 5.7687,2.42361 12.0312,5.54606 10.739,13.17836 -0.9435,5.6259 -5.8843,9.79878 -14.5562,9.38784 z m -1.3584,-24.83962 1.299,-7.68514 c -2.9762,0.16411 -4.3783,1.54173 -4.6811,3.32767 -0.3215,1.89421 1.128,3.19696 3.3821,4.35747 z m 7.0992,14.62384 c 0.3205,-1.89683 -1.0755,-3.18806 -3.2628,-4.39654 l -1.2654,7.46927 c 2.8062,-0.13721 4.2359,-1.3429 4.5289,-3.07469 z"
     style="fill:#ebebeb;fill-opacity:1;stroke-width:2.08951616"
     inkscape:connector-curvature="0" />
</svg>
